<svg width="58" height="55" viewBox="0 0 58 55" fill="none" xmlns="http://www.w3.org/2000/svg">
<g clip-path="url(#clip0_7013_14795)">
<path d="M22.0781 17.23H19.0781C17.4281 17.23 16.0781 18.58 16.0781 20.23V21.23C16.0781 22.88 17.4281 24.23 19.0781 24.23H22.0781C23.7281 24.23 25.0781 22.88 25.0781 21.23V20.23C25.0781 18.58 23.7281 17.23 22.0781 17.23ZM23.0781 21.23C23.0781 21.78 22.6281 22.23 22.0781 22.23H19.0781C18.5281 22.23 18.0781 21.78 18.0781 21.23V20.23C18.0781 19.68 18.5281 19.23 19.0781 19.23H22.0781C22.6281 19.23 23.0781 19.68 23.0781 20.23V21.23Z" fill="url(#paint0_linear_7013_14795)"/>
<path d="M11.1484 17.23H8.14844C6.49844 17.23 5.14844 18.58 5.14844 20.23V21.23C5.14844 22.88 6.49844 24.23 8.14844 24.23H11.1484C12.7984 24.23 14.1484 22.88 14.1484 21.23V20.23C14.1484 18.58 12.7984 17.23 11.1484 17.23ZM12.1484 21.23C12.1484 21.78 11.6984 22.23 11.1484 22.23H8.14844C7.59844 22.23 7.14844 21.78 7.14844 21.23V20.23C7.14844 19.68 7.59844 19.23 8.14844 19.23H11.1484C11.6984 19.23 12.1484 19.68 12.1484 20.23V21.23Z" fill="url(#paint1_linear_7013_14795)"/>
<path d="M33 17.23H30C28.35 17.23 27 18.58 27 20.23V21.23C27 22.88 28.35 24.23 30 24.23H33C34.65 24.23 36 22.88 36 21.23V20.23C36 18.58 34.65 17.23 33 17.23ZM34 21.23C34 21.78 33.55 22.23 33 22.23H30C29.45 22.23 29 21.78 29 21.23V20.23C29 19.68 29.45 19.23 30 19.23H33C33.55 19.23 34 19.68 34 20.23V21.23Z" fill="url(#paint2_linear_7013_14795)"/>
<path d="M40.9297 24.23H43.9297C45.5797 24.23 46.9297 22.88 46.9297 21.23V20.23C46.9297 18.58 45.5797 17.23 43.9297 17.23H40.9297C39.2797 17.23 37.9297 18.58 37.9297 20.23V21.23C37.9297 22.88 39.2797 24.23 40.9297 24.23ZM39.9297 20.23C39.9297 19.68 40.3797 19.23 40.9297 19.23H43.9297C44.4797 19.23 44.9297 19.68 44.9297 20.23V21.23C44.9297 21.78 44.4797 22.23 43.9297 22.23H40.9297C40.3797 22.23 39.9297 21.78 39.9297 21.23V20.23Z" fill="url(#paint3_linear_7013_14795)"/>
<path d="M22.0781 26.52H19.0781C17.4281 26.52 16.0781 27.87 16.0781 29.52V30.52C16.0781 32.17 17.4281 33.52 19.0781 33.52H22.0781C23.7281 33.52 25.0781 32.17 25.0781 30.52V29.52C25.0781 27.87 23.7281 26.52 22.0781 26.52ZM23.0781 30.52C23.0781 31.07 22.6281 31.52 22.0781 31.52H19.0781C18.5281 31.52 18.0781 31.07 18.0781 30.52V29.52C18.0781 28.97 18.5281 28.52 19.0781 28.52H22.0781C22.6281 28.52 23.0781 28.97 23.0781 29.52V30.52Z" fill="url(#paint4_linear_7013_14795)"/>
<path d="M11.1484 26.52H8.14844C6.49844 26.52 5.14844 27.87 5.14844 29.52V30.52C5.14844 32.17 6.49844 33.52 8.14844 33.52H11.1484C12.7984 33.52 14.1484 32.17 14.1484 30.52V29.52C14.1484 27.87 12.7984 26.52 11.1484 26.52ZM12.1484 30.52C12.1484 31.07 11.6984 31.52 11.1484 31.52H8.14844C7.59844 31.52 7.14844 31.07 7.14844 30.52V29.52C7.14844 28.97 7.59844 28.52 8.14844 28.52H11.1484C11.6984 28.52 12.1484 28.97 12.1484 29.52V30.52Z" fill="url(#paint5_linear_7013_14795)"/>
<path d="M33 26.52H30C28.35 26.52 27 27.87 27 29.52V30.52C27 32.17 28.35 33.52 30 33.52H33C34.65 33.52 36 32.17 36 30.52V29.52C36 27.87 34.65 26.52 33 26.52ZM34 30.52C34 31.07 33.55 31.52 33 31.52H30C29.45 31.52 29 31.07 29 30.52V29.52C29 28.97 29.45 28.52 30 28.52H33C33.55 28.52 34 28.97 34 29.52V30.52Z" fill="url(#paint6_linear_7013_14795)"/>
<path d="M40.9297 33.52H43.9297C45.5797 33.52 46.9297 32.17 46.9297 30.52V29.52C46.9297 27.87 45.5797 26.52 43.9297 26.52H40.9297C39.2797 26.52 37.9297 27.87 37.9297 29.52V30.52C37.9297 32.17 39.2797 33.52 40.9297 33.52ZM39.9297 29.52C39.9297 28.97 40.3797 28.52 40.9297 28.52H43.9297C44.4797 28.52 44.9297 28.97 44.9297 29.52V30.52C44.9297 31.07 44.4797 31.52 43.9297 31.52H40.9297C40.3797 31.52 39.9297 31.07 39.9297 30.52V29.52Z" fill="url(#paint7_linear_7013_14795)"/>
<path d="M22.0781 35.8H19.0781C17.4281 35.8 16.0781 37.15 16.0781 38.8V39.8C16.0781 41.45 17.4281 42.8 19.0781 42.8H22.0781C23.7281 42.8 25.0781 41.45 25.0781 39.8V38.8C25.0781 37.15 23.7281 35.8 22.0781 35.8ZM23.0781 39.8C23.0781 40.35 22.6281 40.8 22.0781 40.8H19.0781C18.5281 40.8 18.0781 40.35 18.0781 39.8V38.8C18.0781 38.25 18.5281 37.8 19.0781 37.8H22.0781C22.6281 37.8 23.0781 38.25 23.0781 38.8V39.8Z" fill="url(#paint8_linear_7013_14795)"/>
<path d="M11.1484 35.8H8.14844C6.49844 35.8 5.14844 37.15 5.14844 38.8V39.8C5.14844 41.45 6.49844 42.8 8.14844 42.8H11.1484C12.7984 42.8 14.1484 41.45 14.1484 39.8V38.8C14.1484 37.15 12.7984 35.8 11.1484 35.8ZM12.1484 39.8C12.1484 40.35 11.6984 40.8 11.1484 40.8H8.14844C7.59844 40.8 7.14844 40.35 7.14844 39.8V38.8C7.14844 38.25 7.59844 37.8 8.14844 37.8H11.1484C11.6984 37.8 12.1484 38.25 12.1484 38.8V39.8Z" fill="url(#paint9_linear_7013_14795)"/>
<path d="M33 35.8H30C28.35 35.8 27 37.15 27 38.8V39.8C27 41.45 28.35 42.8 30 42.8H33C34.65 42.8 36 41.45 36 39.8V38.8C36 37.15 34.65 35.8 33 35.8ZM34 39.8C34 40.35 33.55 40.8 33 40.8H30C29.45 40.8 29 40.35 29 39.8V38.8C29 38.25 29.45 37.8 30 37.8H33C33.55 37.8 34 38.25 34 38.8V39.8Z" fill="url(#paint10_linear_7013_14795)"/>
<path d="M51.43 35.62V8.86C51.43 6.1 49.19 3.86 46.43 3.86H41.43V3C41.43 1.35 40.08 0 38.43 0C36.78 0 35.43 1.35 35.43 3V3.86H29.21V3C29.21 1.35 27.86 0 26.21 0C24.56 0 23.21 1.35 23.21 3V3.86H17V3C17 1.35 15.65 0 14 0C12.35 0 11 1.35 11 3V3.86H5C2.24 3.86 0 6.1 0 8.86V43.86C0 46.62 2.24 48.86 5 48.86H38.19C39.8 52.39 43.37 54.71 47.28 54.71C52.79 54.71 57.28 50.22 57.28 44.71C57.28 40.8 54.96 37.23 51.43 35.62ZM37.43 3C37.43 2.45 37.88 2 38.43 2C38.98 2 39.43 2.45 39.43 3V7C39.43 7.55 38.98 8 38.43 8C37.88 8 37.43 7.55 37.43 7V3ZM25.21 3C25.21 2.45 25.66 2 26.21 2C26.76 2 27.21 2.45 27.21 3V7C27.21 7.55 26.76 8 26.21 8C25.94 8 25.7 7.9 25.51 7.7C25.32 7.51 25.21 7.26 25.21 7V3ZM13 3C13 2.45 13.45 2 14 2C14.55 2 15 2.45 15 3V7C15 7.55 14.55 8 14 8C13.73 8 13.49 7.9 13.29 7.69C13.1 7.51 13 7.26 13 7V3ZM5 5.86H11V7C11 7.81 11.32 8.57 11.87 9.11C12.43 9.68 13.19 10 14 10C15.65 10 17 8.65 17 7V5.86H23.21V7C23.21 7.8 23.52 8.55 24.08 9.11C24.64 9.68 25.4 10 26.21 10C27.86 10 29.21 8.65 29.21 7V5.86H35.43V7C35.43 8.65 36.78 10 38.43 10C40.08 10 41.43 8.65 41.43 7V5.86H46.43C48.08 5.86 49.43 7.21 49.43 8.86V12.14H2V8.86C2 7.21 3.35 5.86 5 5.86ZM5 46.86C3.35 46.86 2 45.51 2 43.86V14.14H49.43V34.94C48.73 34.79 48.01 34.71 47.28 34.71C41.77 34.71 37.28 39.2 37.28 44.71C37.28 45.44 37.36 46.16 37.51 46.86H5ZM47.28 52.71C43.96 52.71 40.95 50.62 39.79 47.51C39.46 46.62 39.29 45.68 39.29 44.71C39.29 40.3 42.88 36.71 47.29 36.71C48.26 36.71 49.2 36.88 50.09 37.22C53.2 38.39 55.29 41.4 55.29 44.71C55.29 49.12 51.7 52.71 47.29 52.71H47.28Z" fill="url(#paint11_linear_7013_14795)"/>
<path d="M50.8711 41.63L46.7211 46.41L44.4911 43.98C44.1211 43.57 43.4811 43.55 43.0811 43.92C42.6711 44.29 42.6511 44.93 43.0211 45.33L46.0111 48.59C46.2011 48.8 46.4711 48.91 46.7511 48.91H46.7611C47.0411 48.91 47.3111 48.78 47.5011 48.57L52.3911 42.95C52.7511 42.53 52.7111 41.9 52.2911 41.54C51.8711 41.18 51.2411 41.22 50.8811 41.64L50.8711 41.63Z" fill="url(#paint12_linear_7013_14795)"/>
</g>
<defs>
<linearGradient id="paint0_linear_7013_14795" x1="20.5781" y1="17.23" x2="20.5781" y2="24.23" gradientUnits="userSpaceOnUse">
<stop stop-color="#25A9C9"/>
<stop offset="1" stop-color="#00587C"/>
</linearGradient>
<linearGradient id="paint1_linear_7013_14795" x1="9.64844" y1="17.23" x2="9.64844" y2="24.23" gradientUnits="userSpaceOnUse">
<stop stop-color="#25A9C9"/>
<stop offset="1" stop-color="#00587C"/>
</linearGradient>
<linearGradient id="paint2_linear_7013_14795" x1="31.5" y1="17.23" x2="31.5" y2="24.23" gradientUnits="userSpaceOnUse">
<stop stop-color="#25A9C9"/>
<stop offset="1" stop-color="#00587C"/>
</linearGradient>
<linearGradient id="paint3_linear_7013_14795" x1="42.4297" y1="17.23" x2="42.4297" y2="24.23" gradientUnits="userSpaceOnUse">
<stop stop-color="#25A9C9"/>
<stop offset="1" stop-color="#00587C"/>
</linearGradient>
<linearGradient id="paint4_linear_7013_14795" x1="20.5781" y1="26.52" x2="20.5781" y2="33.52" gradientUnits="userSpaceOnUse">
<stop stop-color="#25A9C9"/>
<stop offset="1" stop-color="#00587C"/>
</linearGradient>
<linearGradient id="paint5_linear_7013_14795" x1="9.64844" y1="26.52" x2="9.64844" y2="33.52" gradientUnits="userSpaceOnUse">
<stop stop-color="#25A9C9"/>
<stop offset="1" stop-color="#00587C"/>
</linearGradient>
<linearGradient id="paint6_linear_7013_14795" x1="31.5" y1="26.52" x2="31.5" y2="33.52" gradientUnits="userSpaceOnUse">
<stop stop-color="#25A9C9"/>
<stop offset="1" stop-color="#00587C"/>
</linearGradient>
<linearGradient id="paint7_linear_7013_14795" x1="42.4297" y1="26.52" x2="42.4297" y2="33.52" gradientUnits="userSpaceOnUse">
<stop stop-color="#25A9C9"/>
<stop offset="1" stop-color="#00587C"/>
</linearGradient>
<linearGradient id="paint8_linear_7013_14795" x1="20.5781" y1="35.8" x2="20.5781" y2="42.8" gradientUnits="userSpaceOnUse">
<stop stop-color="#25A9C9"/>
<stop offset="1" stop-color="#00587C"/>
</linearGradient>
<linearGradient id="paint9_linear_7013_14795" x1="9.64844" y1="35.8" x2="9.64844" y2="42.8" gradientUnits="userSpaceOnUse">
<stop stop-color="#25A9C9"/>
<stop offset="1" stop-color="#00587C"/>
</linearGradient>
<linearGradient id="paint10_linear_7013_14795" x1="31.5" y1="35.8" x2="31.5" y2="42.8" gradientUnits="userSpaceOnUse">
<stop stop-color="#25A9C9"/>
<stop offset="1" stop-color="#00587C"/>
</linearGradient>
<linearGradient id="paint11_linear_7013_14795" x1="28.64" y1="0" x2="28.64" y2="54.71" gradientUnits="userSpaceOnUse">
<stop stop-color="#25A9C9"/>
<stop offset="1" stop-color="#00587C"/>
</linearGradient>
<linearGradient id="paint12_linear_7013_14795" x1="47.6969" y1="41.2952" x2="47.6969" y2="48.91" gradientUnits="userSpaceOnUse">
<stop stop-color="#25A9C9"/>
<stop offset="1" stop-color="#00587C"/>
</linearGradient>
<clipPath id="clip0_7013_14795">
<rect width="57.28" height="54.71" fill="white"/>
</clipPath>
</defs>
</svg>
