<svg width="95" height="86" viewBox="0 0 95 86" fill="none" xmlns="http://www.w3.org/2000/svg">
<path d="M8.57775 3.05164C7.21296 3.05164 6.16311 3.5715 5.41868 4.60158C4.67424 5.63166 4.30201 7.07571 4.30201 8.91446C4.30201 12.7556 5.73364 14.6714 8.58731 14.6714C9.78986 14.6714 11.2406 14.3729 12.9394 13.7664V16.8278C11.5364 17.4151 9.97118 17.7135 8.24371 17.7135C5.76225 17.7135 3.86299 16.953 2.54591 15.4319C1.22883 13.9108 0.570312 11.7352 0.570312 8.8952C0.570312 7.10459 0.8948 5.53539 1.54379 4.18762C2.19279 2.83985 3.11858 1.80976 4.33067 1.08774C5.54276 0.365719 6.95528 0.00952148 8.58731 0.00952148C10.2193 0.00952148 11.9086 0.413854 13.5788 1.22252L12.4145 4.18762C11.775 3.87956 11.1356 3.61 10.4866 3.38858C9.83757 3.15754 9.20767 3.04201 8.58731 3.04201L8.57775 3.05164Z" fill="#0095C8"/>
<path d="M30.283 8.84717C30.283 11.6968 29.5863 13.8821 28.1833 15.4224C26.7803 16.9531 24.7761 17.7136 22.161 17.7136C19.546 17.7136 17.5417 16.9434 16.1388 15.4224C14.7358 13.8917 14.0391 11.6968 14.0391 8.82792C14.0391 5.95909 14.7453 3.77377 16.1483 2.26233C17.5513 0.750902 19.5651 0 22.1897 0C24.8143 0 26.8185 0.76053 28.2119 2.28159C29.5958 3.80265 30.2925 5.99759 30.2925 8.84717H30.283ZM17.828 8.84717C17.828 10.7726 18.1907 12.2166 18.9161 13.1889C19.6414 14.1613 20.7199 14.6522 22.161 14.6522C25.0529 14.6522 26.494 12.7172 26.494 8.84717C26.494 4.97714 25.0624 3.03249 22.1897 3.03249C20.7485 3.03249 19.6605 3.52347 18.9351 4.49579C18.2003 5.47774 17.8376 6.92178 17.8376 8.84717H17.828Z" fill="#0095C8"/>
<path d="M38.9939 17.4728H35.3767V3.30188H30.7383V0.259766H43.6228V3.30188H38.9844V17.4824L38.9939 17.4728Z" fill="#0095C8"/>
<path d="M33.1735 22.6043C33.1735 24.4526 32.6009 25.8774 31.4556 26.8594C30.3103 27.8413 28.6783 28.3323 26.5595 28.3323H25.0039V34.455H21.3867V17.2324H26.8363C28.9074 17.2324 30.4821 17.6849 31.5606 18.5802C32.6391 19.4755 33.1735 20.8233 33.1735 22.6043ZM25.0039 25.3383H26.1969C27.3135 25.3383 28.1439 25.1169 28.6974 24.6741C29.251 24.2312 29.5277 23.5862 29.5277 22.739C29.5277 21.8919 29.2987 21.2469 28.831 20.8425C28.3729 20.4382 27.6476 20.2264 26.655 20.2264H25.0134V25.3383H25.0039Z" fill="#0095C8"/>
<path d="M48.5772 17.2324L43.2993 29.4105C42.6408 30.9412 42.0204 32.0387 41.4382 32.7029C40.856 33.3672 40.1689 33.8678 39.3767 34.1951C38.5845 34.5224 37.6206 34.6861 36.4849 34.6861C35.5114 34.6861 34.6047 34.5706 33.7648 34.3299V31.2011C34.452 31.4803 35.3014 31.6247 36.3226 31.6247C36.9716 31.6247 37.487 31.4707 37.8878 31.1722C38.2887 30.8738 38.6132 30.3443 38.8804 29.6031L32.9727 17.242H36.7998L40.9992 26.8401H41.1137L41.3237 26.2529L44.8455 17.242H48.5676L48.5772 17.2324Z" fill="#0095C8"/>
<path d="M45.9705 31.4129H47.2875C48.4137 29.141 49.3109 26.8594 49.9599 24.5874C50.6184 22.3155 51.0956 19.8606 51.4201 17.2324H61.3649V31.4129H63.6364V39.4707H60.1433V34.455H49.454V39.4707H45.9609V31.4129H45.9705ZM54.2928 20.2745C54.0447 22.0748 53.6343 23.9809 53.0521 25.9833C52.4699 27.9954 51.8209 29.8052 51.0956 31.4129H57.7573V20.2745H54.2928Z" fill="#0095C8"/>
<path d="M20.3258 51.4176H16.7181V43.9856H9.96095V51.4176H6.34375V34.2046H9.96095V40.9531H16.7181V34.2046H20.3258V51.4176Z" fill="#0095C8"/>
<path d="M23.1797 34.2046H26.4342V42.5223L26.3865 44.7461L26.2719 47.278H26.3388L34.2221 34.2046H38.5551V51.4176H35.3292V43.148C35.3292 42.0409 35.396 40.4044 35.5392 38.2287H35.4437L27.5318 51.4176H23.1797V34.2046Z" fill="#0095C8"/>
<path d="M54.5523 51.4176H50.9351V44.7653C49.7326 45.1697 48.74 45.4489 47.9383 45.6029C47.1366 45.7473 46.3826 45.8243 45.6573 45.8243C44.0348 45.8243 42.775 45.4296 41.8969 44.6402C41.0094 43.8508 40.5703 42.7437 40.5703 41.3093V34.1949H44.178V40.2696C44.178 41.0975 44.3688 41.7232 44.7506 42.1468C45.1324 42.5704 45.7813 42.7726 46.688 42.7726C47.3275 42.7726 47.9669 42.7052 48.5968 42.58C49.2267 42.4549 50.0094 42.2238 50.9351 41.9061V34.1949H54.5523V51.4079V51.4176Z" fill="#0095C8"/>
<path d="M26.1975 68.3899H16.3672V51.1769H26.1975V54.1709H19.9844V57.9543H25.7585V60.9482H19.9844V65.3863H26.1975V68.3995V68.3899Z" fill="#0095C8"/>
<path d="M35.4818 53.9591C34.117 53.9591 33.0671 54.4789 32.3132 55.509C31.5687 56.5391 31.1965 57.9832 31.1965 59.8219C31.1965 63.6631 32.6281 65.5788 35.4818 65.5788C36.6843 65.5788 38.135 65.2804 39.8338 64.6739V67.7353C38.4308 68.3225 36.8657 68.621 35.1382 68.621C32.6568 68.621 30.7575 67.8604 29.4405 66.3394C28.1234 64.8183 27.4648 62.6426 27.4648 59.793C27.4648 58.0024 27.7893 56.4332 28.4288 55.0854C29.0778 53.7377 30.0035 52.7076 31.2156 51.9856C32.4277 51.2635 33.8402 50.9073 35.4722 50.9073C37.1042 50.9073 38.7935 51.3117 40.4637 52.1203L39.2993 55.0854C38.6599 54.7774 38.0205 54.5078 37.3715 54.2864C36.7225 54.0554 36.0926 53.9398 35.4722 53.9398L35.4818 53.9591Z" fill="#0095C8"/>
<path d="M49.4743 68.3899H45.8571V54.2094H41.2188V51.1672H54.1031V54.2094H49.4648V68.3899H49.4743Z" fill="#0095C8"/>
<path d="M26.3963 68.1395H31.7027C34.1269 68.1395 35.883 68.4861 36.971 69.1792C38.0686 69.8724 38.6126 70.9795 38.6126 72.4909C38.6126 73.521 38.374 74.3585 37.8968 75.0228C37.4196 75.6774 36.7801 76.0818 35.988 76.2165V76.3321C37.0665 76.5727 37.8491 77.0348 38.3263 77.6991C38.8035 78.3633 39.0421 79.249 39.0421 80.3561C39.0421 81.9253 38.479 83.1479 37.3528 84.0336C36.2266 84.9097 34.6996 85.3525 32.7717 85.3525H26.3867V68.1395H26.3963ZM30.0134 74.9554H32.1131C33.0962 74.9554 33.8024 74.8014 34.2414 74.4933C34.6805 74.1852 34.9 73.6846 34.9 72.9723C34.9 72.3176 34.6614 71.8363 34.1842 71.5571C33.707 71.2683 32.953 71.1239 31.9127 71.1239H30.0134V74.9554ZM30.0134 77.8531V82.3393H32.3708C33.3634 82.3393 34.0983 82.1467 34.5755 81.7617C35.0527 81.3766 35.2913 80.7893 35.2913 79.9999C35.2913 78.5751 34.2796 77.8531 32.2563 77.8531H30.0134Z" fill="#0095C8"/>
<path d="M56.5838 76.7268C56.5838 79.5764 55.887 81.7617 54.4841 83.302C53.0811 84.8327 51.0769 85.5932 48.4618 85.5932C45.8467 85.5932 43.8425 84.8231 42.4395 83.302C41.0366 81.7713 40.3398 79.5764 40.3398 76.7076C40.3398 73.8387 41.0461 71.6534 42.4491 70.142C43.852 68.6305 45.8658 67.8796 48.4904 67.8796C51.115 67.8796 53.1193 68.6402 54.5127 70.1612C55.9061 71.6823 56.5933 73.8772 56.5933 76.7268H56.5838ZM44.1288 76.7268C44.1288 78.6522 44.4915 80.0963 45.2168 81.0686C45.9422 82.0409 47.0207 82.5319 48.4618 82.5319C51.3536 82.5319 52.7948 80.5968 52.7948 76.7268C52.7948 72.8568 51.3632 70.9121 48.4904 70.9121C47.0493 70.9121 45.9613 71.4031 45.2359 72.3754C44.501 73.3574 44.1384 74.8014 44.1384 76.7268H44.1288Z" fill="#0095C8"/>
<path d="M77.1002 76.4188C86.704 76.4188 94.4893 68.5657 94.4893 58.8784C94.4893 49.1912 86.704 41.3381 77.1002 41.3381C67.4964 41.3381 59.7109 49.1912 59.7109 58.8784C59.7109 68.5657 67.4964 76.4188 77.1002 76.4188Z" fill="#0095C8"/>
</svg>
