<svg width="58" height="55" viewBox="0 0 58 55" fill="none" xmlns="http://www.w3.org/2000/svg">
<g clip-path="url(#clip0_5318_25190)">
<path d="M51.43 35.62V8.86C51.43 6.1 49.19 3.86 46.43 3.86H41.43V3C41.43 1.35 40.08 0 38.43 0C36.78 0 35.43 1.35 35.43 3V3.86H29.21V3C29.21 1.35 27.86 0 26.21 0C24.56 0 23.21 1.35 23.21 3V3.86H17V3C17 1.35 15.65 0 14 0C12.35 0 11 1.35 11 3V3.86H5C2.24 3.86 0 6.1 0 8.86V43.86C0 46.62 2.24 48.86 5 48.86H38.19C39.8 52.39 43.37 54.71 47.28 54.71C52.79 54.71 57.28 50.22 57.28 44.71C57.28 40.8 54.96 37.23 51.43 35.62V35.62ZM37.43 3C37.43 2.45 37.88 2 38.43 2C38.98 2 39.43 2.45 39.43 3V7C39.43 7.55 38.98 8 38.43 8C37.88 8 37.43 7.55 37.43 7V3ZM25.21 3C25.21 2.45 25.66 2 26.21 2C26.76 2 27.21 2.45 27.21 3V7C27.21 7.55 26.76 8 26.21 8C25.94 8 25.7 7.9 25.51 7.7C25.32 7.51 25.21 7.26 25.21 7V3ZM13 3C13 2.45 13.45 2 14 2C14.55 2 15 2.45 15 3V7C15 7.55 14.55 8 14 8C13.73 8 13.49 7.9 13.29 7.69C13.1 7.51 13 7.26 13 7V3ZM5 5.86H11V7C11 7.81 11.32 8.57 11.87 9.11C12.43 9.68 13.19 10 14 10C15.65 10 17 8.65 17 7V5.86H23.21V7C23.21 7.8 23.52 8.55 24.08 9.11C24.64 9.68 25.4 10 26.21 10C27.86 10 29.21 8.65 29.21 7V5.86H35.43V7C35.43 8.65 36.78 10 38.43 10C40.08 10 41.43 8.65 41.43 7V5.86H46.43C48.08 5.86 49.43 7.21 49.43 8.86V12.14H2V8.86C2 7.21 3.35 5.86 5 5.86V5.86ZM5 46.86C3.35 46.86 2 45.51 2 43.86V14.14H49.43V34.94C48.73 34.79 48.01 34.71 47.28 34.71C41.77 34.71 37.28 39.2 37.28 44.71C37.28 45.44 37.36 46.16 37.51 46.86H5ZM47.28 52.71C43.96 52.71 40.95 50.62 39.79 47.51C39.46 46.62 39.29 45.68 39.29 44.71C39.29 40.3 42.88 36.71 47.29 36.71C48.26 36.71 49.2 36.88 50.09 37.22C53.2 38.39 55.29 41.4 55.29 44.71C55.29 49.12 51.7 52.71 47.29 52.71H47.28Z" fill="url(#paint0_linear_5318_25190)"/>
<path d="M50.8711 41.63L46.7211 46.41L44.4911 43.98C44.1211 43.57 43.4811 43.55 43.0811 43.92C42.6711 44.29 42.6511 44.93 43.0211 45.33L46.0111 48.59C46.2011 48.8 46.4711 48.91 46.7511 48.91H46.7611C47.0411 48.91 47.3111 48.78 47.5011 48.57L52.3911 42.95C52.7511 42.53 52.7111 41.9 52.2911 41.54C51.8711 41.18 51.2411 41.22 50.8811 41.64L50.8711 41.63Z" fill="url(#paint1_linear_5318_25190)"/>
<path d="M31.0234 24.8047C31.0234 25.8906 30.707 26.7969 30.0742 27.5234C29.4414 28.2422 28.5508 28.7266 27.4023 28.9766V29.0703C28.7773 29.2422 29.8086 29.6719 30.4961 30.3594C31.1836 31.0391 31.5273 31.9453 31.5273 33.0781C31.5273 34.7266 30.9453 36 29.7812 36.8984C28.6172 37.7891 26.9609 38.2344 24.8125 38.2344C22.9141 38.2344 21.3125 37.9258 20.0078 37.3086V34.8594C20.7344 35.2188 21.5039 35.4961 22.3164 35.6914C23.1289 35.8867 23.9102 35.9844 24.6602 35.9844C25.9883 35.9844 26.9805 35.7383 27.6367 35.2461C28.293 34.7539 28.6211 33.9922 28.6211 32.9609C28.6211 32.0469 28.2578 31.375 27.5312 30.9453C26.8047 30.5156 25.6641 30.3008 24.1094 30.3008H22.6211V28.0625H24.1328C26.8672 28.0625 28.2344 27.1172 28.2344 25.2266C28.2344 24.4922 27.9961 23.9258 27.5195 23.5273C27.043 23.1289 26.3398 22.9297 25.4102 22.9297C24.7617 22.9297 24.1367 23.0234 23.5352 23.2109C22.9336 23.3906 22.2227 23.7461 21.4023 24.2773L20.0547 22.3555C21.625 21.1992 23.4492 20.6211 25.5273 20.6211C27.2539 20.6211 28.6016 20.9922 29.5703 21.7344C30.5391 22.4766 31.0234 23.5 31.0234 24.8047Z" fill="url(#paint2_linear_5318_25190)"/>
</g>
<defs>
<linearGradient id="paint0_linear_5318_25190" x1="28.64" y1="0" x2="28.64" y2="54.71" gradientUnits="userSpaceOnUse">
<stop stop-color="#25A9C9"/>
<stop offset="1" stop-color="#00587C"/>
</linearGradient>
<linearGradient id="paint1_linear_5318_25190" x1="47.6969" y1="41.2952" x2="47.6969" y2="48.91" gradientUnits="userSpaceOnUse">
<stop stop-color="#25A9C9"/>
<stop offset="1" stop-color="#00587C"/>
</linearGradient>
<linearGradient id="paint2_linear_5318_25190" x1="27.5" y1="17" x2="27.5" y2="38" gradientUnits="userSpaceOnUse">
<stop stop-color="#25A9C9"/>
<stop offset="1" stop-color="#00587C"/>
</linearGradient>
<clipPath id="clip0_5318_25190">
<rect width="57.28" height="54.71" fill="white"/>
</clipPath>
</defs>
</svg>
