<svg width="42" height="58" viewBox="0 0 42 58" fill="none" xmlns="http://www.w3.org/2000/svg">
<g clip-path="url(#clip0_5318_25196)">
<path d="M38.4327 9H37.5V6.92C37.5 5.31 36.2212 4 34.6442 4H25.9615V3.88C25.9615 2.87 25.1442 2.06 24.1346 2.06H22.2019C21.6442 0.83 20.3942 0 18.9615 0C17.5288 0 16.2692 0.83 15.7212 2.06H13.3654C12.3558 2.06 11.5385 2.88 11.5385 3.88V4H2.85577C1.27885 4 0 5.31 0 6.92V51.08C0 52.69 1.27885 54 2.85577 54H2.88462V55.12C2.88462 56.71 4.19231 58 5.79808 58H38.4327C40.0385 58 41.3462 56.71 41.3462 55.12V11.88C41.3462 10.29 40.0385 9 38.4327 9ZM13.4615 4.06H16.4135C16.875 4.06 17.2788 3.71 17.3558 3.24C17.4808 2.54 18.1635 2 18.9615 2C19.7596 2 20.4423 2.53 20.5673 3.24C20.6538 3.72 21.0481 4.06 21.5096 4.06H24.0288V7.41H13.4615V4.06ZM1.92308 51.08V6.92C1.92308 6.41 2.34615 6 2.85577 6H11.5385V7.59C11.5385 8.6 12.3558 9.41 13.3654 9.41H24.1442C25.1538 9.41 25.9712 8.59 25.9712 7.59V6H34.6538C35.1731 6 35.5865 6.41 35.5865 6.92V51.08C35.5865 51.59 35.1635 52 34.6538 52H2.85577C2.33654 52 1.92308 51.59 1.92308 51.08ZM39.4231 55.12C39.4231 55.61 38.9808 56 38.4327 56H5.79808C5.25 56 4.80769 55.61 4.80769 55.12V54H34.6442C36.2212 54 37.5 52.69 37.5 51.08V11H38.4327C38.9808 11 39.4231 11.39 39.4231 11.88V55.12Z" fill="url(#paint0_linear_5318_25196)"/>
<path d="M28.8471 31H5.77013C5.24129 31 4.80859 31.45 4.80859 32C4.80859 32.55 5.24129 33 5.77013 33H28.8471C29.3759 33 29.8086 32.55 29.8086 32C29.8086 31.45 29.3759 31 28.8471 31Z" fill="url(#paint1_linear_5318_25196)"/>
<path d="M25.0009 36H5.77013C5.24129 36 4.80859 36.45 4.80859 37C4.80859 37.55 5.24129 38 5.77013 38H25.0009C25.5297 38 25.9624 37.55 25.9624 37C25.9624 36.45 25.5297 36 25.0009 36Z" fill="url(#paint2_linear_5318_25196)"/>
<path d="M14.424 41H5.77013C5.24129 41 4.80859 41.45 4.80859 42C4.80859 42.55 5.24129 43 5.77013 43H14.424C14.9528 43 15.3855 42.55 15.3855 42C15.3855 41.45 14.9528 41 14.424 41Z" fill="url(#paint3_linear_5318_25196)"/>
<path d="M12.5009 46H5.77013C5.24129 46 4.80859 46.45 4.80859 47C4.80859 47.55 5.24129 48 5.77013 48H12.5009C13.0297 48 13.4624 47.55 13.4624 47C13.4624 46.45 13.0297 46 12.5009 46Z" fill="url(#paint4_linear_5318_25196)"/>
<path d="M7.11629 23H10.5778V25.52C10.5778 26.91 11.4817 28 12.6259 28H14.299C15.4432 28 16.3471 26.91 16.3471 25.52V23H19.0874C20.3855 23 21.4336 21.98 21.4336 20.73V19.27C21.4336 18.02 20.3855 17 19.0874 17H16.3471V14.47C16.3471 13.11 15.424 12 14.299 12H12.6259C11.4817 12 10.5778 13.09 10.5778 14.47V17H7.11629C5.84706 17 4.80859 18.02 4.80859 19.27V20.73C4.80859 21.98 5.84706 23 7.11629 23ZM6.73167 19.27C6.73167 19.14 6.88552 19 7.11629 19H11.5394C12.0682 19 12.5009 18.55 12.5009 18V14.47C12.5009 14.18 12.6259 14.01 12.6259 14H14.2605C14.2605 14 14.424 14.18 14.424 14.47V18C14.424 18.55 14.8567 19 15.3855 19H19.0874C19.3278 19 19.5105 19.15 19.5105 19.27V20.73C19.5105 20.86 19.3278 21 19.0874 21H15.3855C14.8567 21 14.424 21.45 14.424 22V25.52C14.424 25.81 14.299 25.98 14.299 26H12.6644C12.6644 26 12.5009 25.82 12.5009 25.52V22C12.5009 21.45 12.0682 21 11.5394 21H7.11629C6.89513 21 6.73167 20.86 6.73167 20.73V19.27Z" fill="url(#paint5_linear_5318_25196)"/>
</g>
<defs>
<linearGradient id="paint0_linear_5318_25196" x1="20.6731" y1="0" x2="20.6731" y2="58" gradientUnits="userSpaceOnUse">
<stop stop-color="#25A9C9"/>
<stop offset="1" stop-color="#00587C"/>
</linearGradient>
<linearGradient id="paint1_linear_5318_25196" x1="17.3086" y1="31" x2="17.3086" y2="33" gradientUnits="userSpaceOnUse">
<stop stop-color="#25A9C9"/>
<stop offset="1" stop-color="#00587C"/>
</linearGradient>
<linearGradient id="paint2_linear_5318_25196" x1="15.3855" y1="36" x2="15.3855" y2="38" gradientUnits="userSpaceOnUse">
<stop stop-color="#25A9C9"/>
<stop offset="1" stop-color="#00587C"/>
</linearGradient>
<linearGradient id="paint3_linear_5318_25196" x1="10.0971" y1="41" x2="10.0971" y2="43" gradientUnits="userSpaceOnUse">
<stop stop-color="#25A9C9"/>
<stop offset="1" stop-color="#00587C"/>
</linearGradient>
<linearGradient id="paint4_linear_5318_25196" x1="9.13552" y1="46" x2="9.13552" y2="48" gradientUnits="userSpaceOnUse">
<stop stop-color="#25A9C9"/>
<stop offset="1" stop-color="#00587C"/>
</linearGradient>
<linearGradient id="paint5_linear_5318_25196" x1="13.1211" y1="12" x2="13.1211" y2="28" gradientUnits="userSpaceOnUse">
<stop stop-color="#25A9C9"/>
<stop offset="1" stop-color="#00587C"/>
</linearGradient>
<clipPath id="clip0_5318_25196">
<rect width="41.3462" height="58" fill="white"/>
</clipPath>
</defs>
</svg>
