<svg width="50" height="57" viewBox="0 0 50 57" fill="none" xmlns="http://www.w3.org/2000/svg">
<path fill-rule="evenodd" clip-rule="evenodd" d="M45 8.27H44V5C44 2.24 41.76 0 39 0H21C18.24 0 16 2.24 16 5V8.27H11.95C11.926 8.266 11.902 8.2588 11.878 8.2516C11.842 8.2408 11.806 8.23 11.77 8.23H5.2C5.164 8.23 5.128 8.2408 5.092 8.2516C5.068 8.2588 5.044 8.266 5.02 8.27H5C2.24 8.27 0 10.51 0 13.27V37.27C0 40.03 2.24 42.27 5 42.27H22V51.09C19.87 51.45 18.08 52.96 17.36 55H9C8.45 55 8 55.45 8 56C8 56.55 8.45 57 9 57H40.08C40.63 57 41.08 56.55 41.08 56C41.08 55.45 40.63 55 40.08 55H33.18C32.39 52.79 30.36 51.23 28 51.04V42.27H45C47.76 42.27 50 40.03 50 37.27V13.27C50 10.51 47.76 8.27 45 8.27ZM26 51H24V43H26V51ZM30.99 55H19.53C20.23 53.79 21.54 53 22.99 53H27.53C28.99 53 30.29 53.79 30.99 55ZM18 7H42V21C42 22.65 40.65 24 39 24H21C19.35 24 18 22.65 18 21V7ZM21 2H39C40.65 2 42 3.35 42 5H18C18 3.35 19.35 2 21 2ZM10.77 25.22L8.98 24.21C8.68 24.04 8.31 24.04 8 24.21L6.21 25.22V10.27H10.78V25.22H10.77ZM4.2 10.39V26.93C4.2 27.29 4.39 27.61 4.69 27.79C5 27.97 5.37 27.97 5.68 27.79L8.47 26.22L11.26 27.79C11.57 27.96 11.95 27.96 12.25 27.79C12.56 27.61 12.74 27.28 12.74 26.93V10.27H15.97V21C15.97 23.76 18.21 26 20.97 26H38.97C41.73 26 43.97 23.76 43.97 21V10.27H44.97C46.62 10.27 47.97 11.62 47.97 13.27V35.05H2V13.27C2 11.89 2.94 10.74 4.2 10.39ZM45 40.27H5C3.35 40.27 2 38.92 2 37.27V37.05H48V37.27C48 38.92 46.65 40.27 45 40.27ZM22 11.98H38.49C39.04 11.98 39.49 11.53 39.49 10.98C39.49 10.43 39.04 9.97998 38.49 9.97998H22C21.45 9.97998 21 10.43 21 10.98C21 11.53 21.45 11.98 22 11.98ZM38.49 16.48H22C21.45 16.48 21 16.03 21 15.48C21 14.93 21.45 14.48 22 14.48H38.49C39.04 14.48 39.49 14.93 39.49 15.48C39.49 16.03 39.04 16.48 38.49 16.48ZM22 20.98H38.49C39.04 20.98 39.49 20.53 39.49 19.98C39.49 19.43 39.04 18.98 38.49 18.98H22C21.45 18.98 21 19.43 21 19.98C21 20.53 21.45 20.98 22 20.98Z" fill="url(#paint0_linear_5318_25205)"/>
<defs>
<linearGradient id="paint0_linear_5318_25205" x1="25" y1="0" x2="25" y2="57" gradientUnits="userSpaceOnUse">
<stop stop-color="#25A9C9"/>
<stop offset="1" stop-color="#00587C"/>
</linearGradient>
</defs>
</svg>
