<svg width="57" height="54" viewBox="0 0 57 54" fill="none" xmlns="http://www.w3.org/2000/svg">
<g clip-path="url(#clip0_5318_25139)">
<mask id="path-1-outside-1_5318_25139" maskUnits="userSpaceOnUse" x="-1" y="-1.00342" width="58" height="56" fill="black">
<rect fill="white" x="-1" y="-1.00342" width="58" height="56"/>
<path d="M54.0776 1.06465C52.6248 -4.46322e-05 50.7394 -0.288399 49.0425 0.28831L36.6211 4.43618C36.0111 3.77075 35.146 3.38258 34.2366 3.39367H22.1811C21.2717 3.39367 20.4067 3.77075 19.7967 4.43618L7.35305 0.28831C4.42514 -0.67657 1.26433 0.898292 0.288355 3.83729C0.0998152 4.40291 0 5.0018 0 5.6007V12.621C0 14.8281 1.2976 16.8354 3.32717 17.7227V48.4214C3.32717 51.5046 5.83364 54 8.91682 54.011H47.4898C50.573 54.011 53.0684 51.5046 53.0795 48.4214V17.7116C55.1091 16.8244 56.4178 14.8281 56.4067 12.6099V5.6007C56.4067 3.80402 55.5527 2.10716 54.0887 1.06465H54.0776ZM4.55823 13.3308C4.36969 13.5748 4.19224 13.841 4.03697 14.1072C3.7597 14.5951 3.56007 15.1164 3.46026 15.6598C2.46211 14.9611 1.87431 13.8299 1.87431 12.6099V5.6007C1.87431 3.54894 3.5268 1.87426 5.58965 1.87426C6 1.87426 6.39926 1.94081 6.78743 2.07389L18.976 6.14413C18.9538 6.32158 18.9316 6.48794 18.9316 6.66539V11.2458H8.90573C7.77449 11.2458 6.67653 11.6007 5.74492 12.2329C5.2902 12.5434 4.89094 12.9094 4.55823 13.3419V13.3308ZM20.8946 52.1367H8.90573C6.85397 52.1367 5.1793 50.4732 5.1793 48.4103V39.9482H20.8725V52.1367H20.8946ZM20.8946 38.085H5.19039V27.1719H20.8836V38.085H20.8946ZM5.19039 25.3197V16.8244C5.19039 14.7726 6.85397 13.0979 8.91682 13.0979H19.3198C19.6747 13.7412 20.2292 14.2403 20.8946 14.5508V25.3197H5.19039ZM33.6488 52.1367H22.7468V14.8059H33.6488V52.1367ZM34.2255 12.9427H22.1701C21.9593 12.9427 21.7597 12.8983 21.5712 12.7985C21.2606 12.6543 21.0166 12.3992 20.8836 12.0887C20.817 11.9112 20.7837 11.7338 20.7726 11.5452V6.6543C20.7726 6.35485 20.8725 6.07759 21.0388 5.8336C21.305 5.4787 21.7153 5.25689 22.1701 5.25689H34.2255C34.6691 5.25689 35.0906 5.46761 35.3568 5.8336C35.5342 6.07759 35.6229 6.36594 35.6229 6.6543V11.5452C35.6229 11.7227 35.5897 11.889 35.5231 12.0554V12.0887H35.512C35.4011 12.5101 35.0462 12.8207 34.6137 12.8872C34.6137 12.8872 34.2588 12.9427 34.2255 12.9427ZM51.2052 48.4103C51.2052 50.4621 49.5416 52.1367 47.4787 52.1367H35.5009V39.9482H51.1941V48.4103H51.2052ZM51.2052 38.085H35.512V27.1719H51.2052V38.085ZM51.2052 25.3197H35.512V14.5397C36.1885 14.2513 36.7431 13.7412 37.0869 13.0868H47.4898C49.5416 13.0868 51.2163 14.7504 51.2163 16.8133V25.3086L51.2052 25.3197ZM54.5324 12.621C54.5324 13.8299 53.9446 14.9722 52.9464 15.6709C52.8909 15.3604 52.7911 15.0499 52.6691 14.7504C52.3586 13.9963 51.9039 13.3197 51.3161 12.7652C50.817 12.3216 50.2625 11.9556 49.6636 11.6783C49.3531 11.5452 49.0314 11.4454 48.7098 11.3678C48.3105 11.2791 47.9002 11.2347 47.4898 11.2347H37.4861V6.6543C37.4861 6.57667 37.4529 6.19959 37.4418 6.13304L49.6303 2.0628C51.5823 1.40846 53.6895 2.45097 54.3438 4.40291C54.4769 4.79108 54.5434 5.19034 54.5434 5.6007V12.621H54.5324Z"/>
</mask>
<path d="M54.0776 1.06465C52.6248 -4.46322e-05 50.7394 -0.288399 49.0425 0.28831L36.6211 4.43618C36.0111 3.77075 35.146 3.38258 34.2366 3.39367H22.1811C21.2717 3.39367 20.4067 3.77075 19.7967 4.43618L7.35305 0.28831C4.42514 -0.67657 1.26433 0.898292 0.288355 3.83729C0.0998152 4.40291 0 5.0018 0 5.6007V12.621C0 14.8281 1.2976 16.8354 3.32717 17.7227V48.4214C3.32717 51.5046 5.83364 54 8.91682 54.011H47.4898C50.573 54.011 53.0684 51.5046 53.0795 48.4214V17.7116C55.1091 16.8244 56.4178 14.8281 56.4067 12.6099V5.6007C56.4067 3.80402 55.5527 2.10716 54.0887 1.06465H54.0776ZM4.55823 13.3308C4.36969 13.5748 4.19224 13.841 4.03697 14.1072C3.7597 14.5951 3.56007 15.1164 3.46026 15.6598C2.46211 14.9611 1.87431 13.8299 1.87431 12.6099V5.6007C1.87431 3.54894 3.5268 1.87426 5.58965 1.87426C6 1.87426 6.39926 1.94081 6.78743 2.07389L18.976 6.14413C18.9538 6.32158 18.9316 6.48794 18.9316 6.66539V11.2458H8.90573C7.77449 11.2458 6.67653 11.6007 5.74492 12.2329C5.2902 12.5434 4.89094 12.9094 4.55823 13.3419V13.3308ZM20.8946 52.1367H8.90573C6.85397 52.1367 5.1793 50.4732 5.1793 48.4103V39.9482H20.8725V52.1367H20.8946ZM20.8946 38.085H5.19039V27.1719H20.8836V38.085H20.8946ZM5.19039 25.3197V16.8244C5.19039 14.7726 6.85397 13.0979 8.91682 13.0979H19.3198C19.6747 13.7412 20.2292 14.2403 20.8946 14.5508V25.3197H5.19039ZM33.6488 52.1367H22.7468V14.8059H33.6488V52.1367ZM34.2255 12.9427H22.1701C21.9593 12.9427 21.7597 12.8983 21.5712 12.7985C21.2606 12.6543 21.0166 12.3992 20.8836 12.0887C20.817 11.9112 20.7837 11.7338 20.7726 11.5452V6.6543C20.7726 6.35485 20.8725 6.07759 21.0388 5.8336C21.305 5.4787 21.7153 5.25689 22.1701 5.25689H34.2255C34.6691 5.25689 35.0906 5.46761 35.3568 5.8336C35.5342 6.07759 35.6229 6.36594 35.6229 6.6543V11.5452C35.6229 11.7227 35.5897 11.889 35.5231 12.0554V12.0887H35.512C35.4011 12.5101 35.0462 12.8207 34.6137 12.8872C34.6137 12.8872 34.2588 12.9427 34.2255 12.9427ZM51.2052 48.4103C51.2052 50.4621 49.5416 52.1367 47.4787 52.1367H35.5009V39.9482H51.1941V48.4103H51.2052ZM51.2052 38.085H35.512V27.1719H51.2052V38.085ZM51.2052 25.3197H35.512V14.5397C36.1885 14.2513 36.7431 13.7412 37.0869 13.0868H47.4898C49.5416 13.0868 51.2163 14.7504 51.2163 16.8133V25.3086L51.2052 25.3197ZM54.5324 12.621C54.5324 13.8299 53.9446 14.9722 52.9464 15.6709C52.8909 15.3604 52.7911 15.0499 52.6691 14.7504C52.3586 13.9963 51.9039 13.3197 51.3161 12.7652C50.817 12.3216 50.2625 11.9556 49.6636 11.6783C49.3531 11.5452 49.0314 11.4454 48.7098 11.3678C48.3105 11.2791 47.9002 11.2347 47.4898 11.2347H37.4861V6.6543C37.4861 6.57667 37.4529 6.19959 37.4418 6.13304L49.6303 2.0628C51.5823 1.40846 53.6895 2.45097 54.3438 4.40291C54.4769 4.79108 54.5434 5.19034 54.5434 5.6007V12.621H54.5324Z" fill="url(#paint0_linear_5318_25139)"/>
<path d="M54.0776 1.06465C52.6248 -4.46322e-05 50.7394 -0.288399 49.0425 0.28831L36.6211 4.43618C36.0111 3.77075 35.146 3.38258 34.2366 3.39367H22.1811C21.2717 3.39367 20.4067 3.77075 19.7967 4.43618L7.35305 0.28831C4.42514 -0.67657 1.26433 0.898292 0.288355 3.83729C0.0998152 4.40291 0 5.0018 0 5.6007V12.621C0 14.8281 1.2976 16.8354 3.32717 17.7227V48.4214C3.32717 51.5046 5.83364 54 8.91682 54.011H47.4898C50.573 54.011 53.0684 51.5046 53.0795 48.4214V17.7116C55.1091 16.8244 56.4178 14.8281 56.4067 12.6099V5.6007C56.4067 3.80402 55.5527 2.10716 54.0887 1.06465H54.0776ZM4.55823 13.3308C4.36969 13.5748 4.19224 13.841 4.03697 14.1072C3.7597 14.5951 3.56007 15.1164 3.46026 15.6598C2.46211 14.9611 1.87431 13.8299 1.87431 12.6099V5.6007C1.87431 3.54894 3.5268 1.87426 5.58965 1.87426C6 1.87426 6.39926 1.94081 6.78743 2.07389L18.976 6.14413C18.9538 6.32158 18.9316 6.48794 18.9316 6.66539V11.2458H8.90573C7.77449 11.2458 6.67653 11.6007 5.74492 12.2329C5.2902 12.5434 4.89094 12.9094 4.55823 13.3419V13.3308ZM20.8946 52.1367H8.90573C6.85397 52.1367 5.1793 50.4732 5.1793 48.4103V39.9482H20.8725V52.1367H20.8946ZM20.8946 38.085H5.19039V27.1719H20.8836V38.085H20.8946ZM5.19039 25.3197V16.8244C5.19039 14.7726 6.85397 13.0979 8.91682 13.0979H19.3198C19.6747 13.7412 20.2292 14.2403 20.8946 14.5508V25.3197H5.19039ZM33.6488 52.1367H22.7468V14.8059H33.6488V52.1367ZM34.2255 12.9427H22.1701C21.9593 12.9427 21.7597 12.8983 21.5712 12.7985C21.2606 12.6543 21.0166 12.3992 20.8836 12.0887C20.817 11.9112 20.7837 11.7338 20.7726 11.5452V6.6543C20.7726 6.35485 20.8725 6.07759 21.0388 5.8336C21.305 5.4787 21.7153 5.25689 22.1701 5.25689H34.2255C34.6691 5.25689 35.0906 5.46761 35.3568 5.8336C35.5342 6.07759 35.6229 6.36594 35.6229 6.6543V11.5452C35.6229 11.7227 35.5897 11.889 35.5231 12.0554V12.0887H35.512C35.4011 12.5101 35.0462 12.8207 34.6137 12.8872C34.6137 12.8872 34.2588 12.9427 34.2255 12.9427ZM51.2052 48.4103C51.2052 50.4621 49.5416 52.1367 47.4787 52.1367H35.5009V39.9482H51.1941V48.4103H51.2052ZM51.2052 38.085H35.512V27.1719H51.2052V38.085ZM51.2052 25.3197H35.512V14.5397C36.1885 14.2513 36.7431 13.7412 37.0869 13.0868H47.4898C49.5416 13.0868 51.2163 14.7504 51.2163 16.8133V25.3086L51.2052 25.3197ZM54.5324 12.621C54.5324 13.8299 53.9446 14.9722 52.9464 15.6709C52.8909 15.3604 52.7911 15.0499 52.6691 14.7504C52.3586 13.9963 51.9039 13.3197 51.3161 12.7652C50.817 12.3216 50.2625 11.9556 49.6636 11.6783C49.3531 11.5452 49.0314 11.4454 48.7098 11.3678C48.3105 11.2791 47.9002 11.2347 47.4898 11.2347H37.4861V6.6543C37.4861 6.57667 37.4529 6.19959 37.4418 6.13304L49.6303 2.0628C51.5823 1.40846 53.6895 2.45097 54.3438 4.40291C54.4769 4.79108 54.5434 5.19034 54.5434 5.6007V12.621H54.5324Z" stroke="url(#paint1_linear_5318_25139)" stroke-width="0.2" mask="url(#path-1-outside-1_5318_25139)"/>
</g>
<defs>
<linearGradient id="paint0_linear_5318_25139" x1="28.2034" y1="-0.00341797" x2="28.2034" y2="54.011" gradientUnits="userSpaceOnUse">
<stop stop-color="#25A9C9"/>
<stop offset="1" stop-color="#00587C"/>
</linearGradient>
<linearGradient id="paint1_linear_5318_25139" x1="28.2034" y1="-0.00341797" x2="28.2034" y2="54.011" gradientUnits="userSpaceOnUse">
<stop stop-color="#25A9C9"/>
<stop offset="1" stop-color="#00587C"/>
</linearGradient>
<clipPath id="clip0_5318_25139">
<rect width="56.3956" height="54" fill="white"/>
</clipPath>
</defs>
</svg>
