<svg width="58" height="58" viewBox="0 0 58 58" fill="none" xmlns="http://www.w3.org/2000/svg">
<path d="M54 29.08V13C54 10.24 51.76 8 49 8H37.58C36.25 3.32 31.93 0 27 0C22.07 0 17.75 3.32 16.42 8H12C5.74 8 0.61 12.69 0.05 18.91C0.02 19.27 0 19.63 0 20V53C0 55.76 2.24 58 5 58H49C51.76 58 54 55.76 54 53V44.92C56.27 44.54 58 42.57 58 40.2V33.8C58 31.43 56.27 29.46 54 29.08ZM49 10C50.65 10 52 11.35 52 13V18H35.47C37.08 16.05 38 13.57 38 11C38 10.67 37.99 10.33 37.96 10H49ZM27 2C31.25 2 34.96 5.02 35.82 9.18V9.2C35.94 9.79 36 10.4 36 11C36 13.71 34.74 16.3 32.63 18H21.38C19.27 16.3 18.01 13.71 18.01 11C18.01 10.39 18.07 9.79 18.19 9.2C19.04 5.03 22.75 2 27.01 2H27ZM12 10H16.04C16.01 10.33 16 10.67 16 11C16 13.57 16.92 16.05 18.53 18H2.21C3.13 13.37 7.16 10 12 10ZM49 56H5C3.35 56 2 54.65 2 53V20H52V29H42C37.59 29 34 32.59 34 37C34 41.41 37.59 45 42 45H52V53C52 54.65 50.65 56 49 56ZM56 40.2C56 41.74 54.74 43 53.2 43H42C38.69 43 36 40.31 36 37C36 33.69 38.69 31 42 31H53.2C54.74 31 56 32.26 56 33.8V40.2Z" fill="url(#paint0_linear_7013_14779)"/>
<path d="M45 34C43.35 34 42 35.35 42 37C42 38.65 43.35 40 45 40C46.65 40 48 38.65 48 37C48 35.35 46.65 34 45 34ZM45 38C44.45 38 44 37.55 44 37C44 36.45 44.45 36 45 36C45.55 36 46 36.45 46 37C46 37.55 45.55 38 45 38Z" fill="url(#paint1_linear_7013_14779)"/>
<path d="M24.7189 14.9999H26.0289V13.4799H28.9189V12.7399H26.0289V11.9699H28.2889C29.4789 11.9699 30.3989 11.7099 31.0689 11.1899C31.7389 10.6599 32.0689 9.9099 32.0689 8.9299C32.0689 7.9499 31.7389 7.2099 31.0689 6.6899C30.3989 6.1599 29.4789 5.8999 28.2889 5.8999H24.7089V12.7399H23.3789V13.4799H24.7089V14.9999H24.7189ZM26.0289 7.0299H28.2889C29.0889 7.0299 29.6989 7.1899 30.1189 7.5199C30.5389 7.8499 30.7589 8.3199 30.7589 8.9399C30.7589 9.5599 30.5389 10.0399 30.1089 10.3799C29.6889 10.7199 29.0789 10.8899 28.2889 10.8899H26.0289V7.0299Z" fill="url(#paint2_linear_7013_14779)"/>
<defs>
<linearGradient id="paint0_linear_7013_14779" x1="29" y1="0" x2="29" y2="58" gradientUnits="userSpaceOnUse">
<stop stop-color="#25A9C9"/>
<stop offset="1" stop-color="#00587C"/>
</linearGradient>
<linearGradient id="paint1_linear_7013_14779" x1="45" y1="34" x2="45" y2="40" gradientUnits="userSpaceOnUse">
<stop stop-color="#25A9C9"/>
<stop offset="1" stop-color="#00587C"/>
</linearGradient>
<linearGradient id="paint2_linear_7013_14779" x1="27.7239" y1="5.8999" x2="27.7239" y2="14.9999" gradientUnits="userSpaceOnUse">
<stop stop-color="#25A9C9"/>
<stop offset="1" stop-color="#00587C"/>
</linearGradient>
</defs>
</svg>
