<svg width="85" height="72" viewBox="0 0 85 72" fill="none" xmlns="http://www.w3.org/2000/svg">
<path d="M17.0636 9.15524C17.0636 12.1011 16.3382 14.3634 14.8971 15.9422C13.4464 17.5211 11.3753 18.3105 8.67436 18.3105C5.9734 18.3105 3.90235 17.5211 2.45165 15.9422C1.00096 14.3634 0.285156 12.0915 0.285156 9.12636C0.285156 6.16125 1.0105 3.90855 2.46119 2.33935C3.91188 0.779784 5.99249 0 8.70299 0C11.4135 0 13.4845 0.789409 14.9161 2.3586C16.3477 3.9278 17.0731 6.19976 17.0731 9.14561L17.0636 9.15524ZM4.19821 9.15524C4.19821 11.1384 4.57042 12.6402 5.3244 13.6414C6.07838 14.6426 7.18549 15.1528 8.67436 15.1528C11.6616 15.1528 13.1505 13.1504 13.1505 9.15524C13.1505 5.16005 11.6712 3.14802 8.70299 3.14802C7.21412 3.14802 6.09748 3.64862 5.33395 4.65945C4.57998 5.67028 4.19821 7.16246 4.19821 9.15524Z" fill="#FFD100"/>
<path d="M26.0636 18.0699H22.3223V3.41768H17.5312V0.279297H30.8451V3.41768H26.054V18.0699H26.0636Z" fill="#FFD100"/>
<path d="M46.6524 18.0698H42.4053L36.0108 9.05898V18.0698H32.2695V0.288818H36.0108V8.90494L42.3289 0.288818H46.3088L39.8761 8.82793L46.6428 18.0698H46.6524Z" fill="#FFD100"/>
<path d="M28.7836 23.6342C28.7836 25.55 28.1919 27.0133 27.0084 28.0241C25.825 29.0349 24.1357 29.5452 21.9501 29.5452H20.3467V35.8701H16.6055V18.0795H22.2364C24.3743 18.0795 25.9968 18.5416 27.1134 19.4754C28.2301 20.3996 28.7836 21.7858 28.7836 23.6342ZM20.3372 26.4549H21.5683C22.7136 26.4549 23.5821 26.2239 24.1452 25.7714C24.7179 25.3093 25.0042 24.645 25.0042 23.769C25.0042 22.8929 24.7656 22.2287 24.2884 21.8147C23.8112 21.3911 23.0572 21.1793 22.036 21.1793H20.3372V26.4549Z" fill="#FFD100"/>
<path d="M42.5736 30.3057C42.5736 32.1541 41.9628 33.5404 40.7507 34.4742C39.5291 35.3984 37.7253 35.8701 35.3393 35.8701H30.5195V18.0795H34.2608V24.905H35.4633C37.7253 24.905 39.4718 25.3767 40.7125 26.3201C41.9533 27.2636 42.5736 28.5921 42.5736 30.3057ZM34.2512 32.7798H35.2247C36.4559 32.7798 37.353 32.5777 37.9257 32.1637C38.4983 31.7497 38.7847 31.1336 38.7847 30.3057C38.7847 29.4778 38.5079 28.8905 37.9543 28.5343C37.4008 28.1781 36.4368 27.9952 35.0529 27.9952H34.2417V32.7798H34.2512ZM48.4432 35.8701H44.721V18.0795H48.4432V35.8701Z" fill="#FFD100"/>
<path d="M18.2277 53.6703H14.4864V39.0277H9.69531V35.8893H23.0092V39.0277H18.2181V53.6703H18.2277Z" fill="#FFD100"/>
<path d="M40.2744 44.7461C40.2744 47.6919 39.5491 49.9542 38.108 51.5331C36.6573 53.1119 34.5862 53.9013 31.8853 53.9013C29.1843 53.9013 27.1133 53.1119 25.6626 51.5331C24.2119 49.9542 23.4961 47.6823 23.4961 44.7172C23.4961 41.7521 24.2214 39.4994 25.6721 37.9302C27.1228 36.3706 29.2034 35.5908 31.9139 35.5908C34.6244 35.5908 36.6954 36.3802 38.127 37.9494C39.5586 39.5186 40.284 41.7906 40.284 44.7364L40.2744 44.7461ZM27.4091 44.7461C27.4091 46.7292 27.7813 48.231 28.5353 49.2322C29.2798 50.2334 30.3964 50.7436 31.8853 50.7436C34.8725 50.7436 36.3614 48.7412 36.3614 44.7461C36.3614 40.7509 34.8821 38.7388 31.9139 38.7388C30.425 38.7388 29.3084 39.2394 28.5449 40.2503C27.7909 41.2611 27.4091 42.7533 27.4091 44.7461Z" fill="#FFD100"/>
<path d="M24.0989 56.5583C22.6959 56.5583 21.5983 57.0878 20.8348 58.1564C20.0617 59.225 19.68 60.7075 19.68 62.6137C19.68 66.58 21.1593 68.5631 24.1084 68.5631C25.3491 68.5631 26.8475 68.2551 28.6036 67.6293V70.7966C27.1529 71.4031 25.54 71.7111 23.7553 71.7111C21.1879 71.7111 19.2314 70.9314 17.8666 69.3525C16.5114 67.7833 15.8242 65.5306 15.8242 62.5944C15.8242 60.746 16.1583 59.1287 16.8263 57.7328C17.4944 56.3369 18.4488 55.2779 19.6991 54.5367C20.9493 53.7954 22.4191 53.4199 24.0989 53.4199C25.7786 53.4199 27.5347 53.8339 29.2621 54.6714L28.0596 57.7328C27.4011 57.4151 26.733 57.1456 26.0649 56.9049C25.3968 56.6738 24.7383 56.5487 24.0989 56.5487V56.5583Z" fill="#FFD100"/>
<path d="M38.5363 71.4609H34.795V56.8087H30.0039V53.6703H43.3178V56.8087H38.5267V71.4609H38.5363Z" fill="#FFD100"/>
<path d="M57.1785 65.9062C57.1785 69.6125 54.7543 71.4706 49.8964 71.4706H44.7617V53.6799H48.503V60.5054H49.9728C52.2729 60.5054 54.0481 60.9772 55.3079 61.9206C56.5581 62.864 57.188 64.1926 57.188 65.9158L57.1785 65.9062ZM48.4934 68.3803H49.7437C51.0035 68.3803 51.9293 68.1781 52.521 67.7642C53.1032 67.3502 53.3991 66.7341 53.3991 65.9062C53.3991 65.0782 53.1032 64.5006 52.5019 64.1348C51.9102 63.7786 50.889 63.5957 49.4383 63.5957H48.4839V68.3803H48.4934Z" fill="#FFD100"/>
<path d="M67.5728 60.1299C77.1765 60.1299 84.9619 52.2769 84.9619 42.5896C84.9619 32.9024 77.1765 25.0493 67.5728 25.0493C57.969 25.0493 50.1836 32.9024 50.1836 42.5896C50.1836 52.2769 57.969 60.1299 67.5728 60.1299Z" fill="#FFD100"/>
</svg>
