<svg width="86" height="85" viewBox="0 0 86 85" fill="none" xmlns="http://www.w3.org/2000/svg">
<path d="M15.9632 17.29H12.3937V3.27314H6.18056V17.29H2.60156V0.269531H15.9536V17.29H15.9632Z" fill="#00AB95"/>
<path d="M30.4423 5.57398C30.4423 7.40311 29.8792 8.80864 28.7434 9.78096C27.6077 10.7533 25.9948 11.2346 23.9046 11.2346H22.3681V17.29H18.7891V0.269531H24.1814C26.2238 0.269531 27.789 0.712371 28.8484 1.59805C29.9173 2.48373 30.4518 3.81225 30.4518 5.57398H30.4423ZM22.3585 8.27916H23.5324C24.63 8.27916 25.4603 8.05774 26.0043 7.62453C26.5483 7.18169 26.8251 6.54631 26.8251 5.70876C26.8251 4.87122 26.596 4.23584 26.1379 3.83151C25.6798 3.42717 24.964 3.22501 23.981 3.22501H22.349V8.27916H22.3585Z" fill="#00AB95"/>
<path d="M47.7283 8.7509C47.7283 11.5716 47.0316 13.7377 45.6477 15.2491C44.2638 16.7605 42.2787 17.5211 39.6923 17.5211C37.1059 17.5211 35.1207 16.7605 33.7369 15.2491C32.353 13.7377 31.6562 11.562 31.6562 8.73165C31.6562 5.90132 32.353 3.73526 33.7369 2.24308C35.1303 0.750902 37.1154 0 39.7114 0C42.3073 0 44.2925 0.750902 45.6572 2.26233C47.0316 3.76414 47.7187 5.9302 47.7187 8.76053L47.7283 8.7509ZM35.4166 8.7509C35.4166 10.657 35.7697 12.0818 36.4855 13.0445C37.2013 14.0072 38.2702 14.4886 39.6923 14.4886C42.5459 14.4886 43.9775 12.5728 43.9775 8.7509C43.9775 4.929 42.5555 3.00361 39.7209 3.00361C38.2989 3.00361 37.2204 3.48496 36.5046 4.45728C35.7793 5.41998 35.4166 6.85439 35.4166 8.76053V8.7509Z" fill="#00AB95"/>
<path d="M22.8534 34.0698L21.6317 30.0168H15.4759L14.2542 34.0698H10.3984L16.3539 16.9819H20.7251L26.6996 34.0698H22.8438H22.8534ZM20.7728 26.994C19.637 23.3261 19.0071 21.2467 18.864 20.7653C18.7208 20.284 18.6158 19.8989 18.5585 19.6197C18.3009 20.6113 17.5755 23.0662 16.373 26.994H20.7728Z" fill="#00AB95"/>
<path d="M41.6062 34.0698H37.5405L31.4228 25.444V34.0698H27.8438V17.0493H31.4228V25.29L37.4737 17.0493H41.2817L35.1258 25.2226L41.5967 34.0698H41.6062Z" fill="#00AB95"/>
<path d="M9.12105 50.8496H5.54206V36.8327H0.960938V33.8291H13.7021V36.8327H9.12105V50.8496Z" fill="#00AB95"/>
<path d="M15.0759 33.8291H18.2923V42.0505L18.2446 44.2551L18.13 46.7581H18.1968L25.9847 33.8387H30.27V50.8592H27.0823V42.6859C27.0823 41.5884 27.1491 39.9711 27.2923 37.8147H27.1968L19.3707 50.8592H15.0664V33.8387L15.0759 33.8291Z" fill="#00AB95"/>
<path d="M33.0955 33.8292H38.3447C40.7402 33.8292 42.4772 34.1758 43.5557 34.8593C44.6342 35.5428 45.1782 36.6403 45.1782 38.1324C45.1782 39.1529 44.9396 39.9808 44.472 40.6354C43.9948 41.2901 43.3744 41.6752 42.5822 41.8099V41.9255C43.6512 42.1661 44.4242 42.6186 44.9014 43.2732C45.3786 43.9375 45.6077 44.8135 45.6077 45.9014C45.6077 47.4513 45.0541 48.6643 43.9375 49.5308C42.8208 50.3972 41.3129 50.8304 39.4041 50.8304H33.0859V33.8099L33.0955 33.8292ZM36.6745 40.5681H38.7551C39.7286 40.5681 40.4253 40.414 40.8643 40.1156C41.3033 39.8172 41.5133 39.3166 41.5133 38.6138C41.5133 37.9592 41.2747 37.4971 40.807 37.2083C40.3298 36.9291 39.5854 36.7847 38.5642 36.7847H36.684V40.5681H36.6745ZM36.6745 43.4273V47.8653H39.0032C39.9863 47.8653 40.7116 47.6728 41.1888 47.2973C41.6565 46.9218 41.8951 46.3346 41.8951 45.5548C41.8951 44.1397 40.8929 43.4369 38.8982 43.4369H36.684L36.6745 43.4273Z" fill="#00AB95"/>
<path d="M26.3566 67.6293H22.7872V60.284H16.1064V67.6293H12.5273V50.6089H16.1064V57.2804H22.7872V50.6089H26.3566V67.6293Z" fill="#00AB95"/>
<path d="M44.5096 59.0903C44.5096 61.911 43.8129 64.077 42.429 65.5885C41.0451 67.0999 39.06 67.8604 36.4736 67.8604C33.8871 67.8604 31.902 67.0999 30.5181 65.5885C29.1342 64.077 28.4375 61.9013 28.4375 59.071C28.4375 56.2407 29.1342 54.0746 30.5181 52.5824C31.9115 51.0903 33.8967 50.3394 36.4926 50.3394C39.0886 50.3394 41.0738 51.0903 42.4386 52.6017C43.8129 54.1035 44.5001 56.2696 44.5001 59.0999L44.5096 59.0903ZM32.1978 59.0903C32.1978 60.9964 32.551 62.4212 33.2668 63.3839C33.9826 64.3466 35.0515 64.8279 36.4736 64.8279C39.3272 64.8279 40.7588 62.9122 40.7588 59.0903C40.7588 55.2684 39.3368 53.343 36.5022 53.343C35.0801 53.343 34.0017 53.8243 33.2859 54.7966C32.5605 55.7593 32.1978 57.1937 32.1978 59.0999V59.0903Z" fill="#00AB95"/>
<path d="M24.6463 70.142C23.3006 70.142 22.2603 70.6522 21.5159 71.6727C20.781 72.6932 20.4088 74.1179 20.4088 75.9374C20.4088 79.7305 21.8213 81.627 24.6463 81.627C25.8298 81.627 27.2709 81.3285 28.9507 80.7317V83.7545C27.5668 84.3321 26.0207 84.6306 24.3123 84.6306C21.8595 84.6306 19.9793 83.8797 18.6813 82.3779C17.3833 80.8761 16.7344 78.7196 16.7344 75.9086C16.7344 74.1372 17.0493 72.5873 17.6888 71.2587C18.3282 69.9302 19.2444 68.9098 20.4374 68.1974C21.6304 67.485 23.0334 67.1288 24.6463 67.1288C26.2593 67.1288 27.9295 67.5235 29.5901 68.3322L28.4353 71.2684C27.8054 70.9699 27.1659 70.7004 26.5265 70.479C25.8871 70.2575 25.2571 70.142 24.6463 70.142Z" fill="#00AB95"/>
<path d="M38.4882 84.4091H34.9092V70.3923H30.3281V67.3887H43.0694V70.3923H38.4882V84.4091Z" fill="#00AB95"/>
<path d="M56.3354 79.0854C56.3354 82.6378 54.0162 84.4091 49.3683 84.4091H44.4531V67.3887H48.0321V73.9157H49.4446C51.6493 73.9157 53.3481 74.3682 54.5507 75.2635C55.7532 76.1685 56.3545 77.4392 56.3545 79.0854H56.3354ZM48.0226 81.4537H49.2251C50.4372 81.4537 51.3153 81.2611 51.8784 80.8664C52.4415 80.4717 52.7182 79.8845 52.7182 79.0951C52.7182 78.3056 52.4319 77.7473 51.8688 77.4007C51.2962 77.0541 50.3227 76.8809 48.9388 76.8809H48.0226V81.4537Z" fill="#00AB95"/>
<path d="M68.1783 76.4284C77.782 76.4284 85.5674 68.5753 85.5674 58.8881C85.5674 49.2008 77.782 41.3478 68.1783 41.3478C58.5745 41.3478 50.7891 49.2008 50.7891 58.8881C50.7891 68.5753 58.5745 76.4284 68.1783 76.4284Z" fill="#00AB95"/>
</svg>
