<svg width="94" height="89" viewBox="0 0 94 89" fill="none" xmlns="http://www.w3.org/2000/svg">
<path d="M16.702 9.1071C16.702 12.0337 15.9862 14.2864 14.5451 15.8652C13.1039 17.4344 11.0424 18.2238 8.35101 18.2238C5.6596 18.2238 3.59809 17.4344 2.15695 15.8652C0.715801 14.2864 0 12.0337 0 9.08784C0 6.142 0.725345 3.88929 2.16649 2.32972C3.60764 0.779783 5.67868 0 8.37964 0C11.0806 0 13.1421 0.779783 14.5642 2.34898C15.9958 3.91817 16.702 6.17088 16.702 9.1071ZM3.89396 9.1071C3.89396 11.0806 4.26617 12.5728 5.0106 13.574C5.75504 14.5752 6.86214 15.0758 8.35101 15.0758C11.3192 15.0758 12.8081 13.083 12.8081 9.1071C12.8081 5.13117 11.3287 3.12876 8.37964 3.12876C6.90032 3.12876 5.78367 3.62936 5.02969 4.63057C4.27572 5.63177 3.9035 7.12395 3.9035 9.1071H3.89396Z" fill="#D71F51"/>
<path d="M25.6643 17.9736H21.9421V3.39843H17.1797V0.279297H30.4268V3.39843H25.6643V17.9736Z" fill="#D71F51"/>
<path d="M10.1541 17.7231H15.6132C18.1042 17.7231 19.9081 18.0793 21.0342 18.7917C22.1604 19.5041 22.7235 20.6401 22.7235 22.1997C22.7235 23.2586 22.4754 24.1251 21.9886 24.799C21.4924 25.4728 20.8434 25.8868 20.0226 26.0216V26.1467C21.1392 26.397 21.9409 26.8688 22.4277 27.5523C22.924 28.2358 23.1626 29.1503 23.1626 30.2863C23.1626 31.9037 22.5804 33.1552 21.4255 34.0601C20.2707 34.965 18.696 35.4175 16.7108 35.4175H10.1445V17.7231H10.1541ZM13.8762 24.7316H16.0332C17.0448 24.7316 17.7702 24.5775 18.2283 24.2598C18.6769 23.9422 18.9059 23.4223 18.9059 22.7003C18.9059 22.0264 18.6578 21.5354 18.171 21.237C17.6748 20.9385 16.9017 20.7941 15.8328 20.7941H13.8762V24.7316ZM13.8762 27.7063V32.3176H16.3004C17.3216 32.3176 18.0851 32.1251 18.5719 31.7207C19.0586 31.326 19.3068 30.7195 19.3068 29.9012C19.3068 28.4283 18.2665 27.6967 16.1859 27.6967H13.8858L13.8762 27.7063Z" fill="#D71F51"/>
<path d="M35.3884 35.4271H25.2812V17.7231H35.3884V20.7941H29.0034V24.6834H34.9398V27.7544H29.0034V32.3176H35.3884V35.4175V35.4271Z" fill="#D71F51"/>
<path d="M44.9143 35.4273H41.1921V20.852H36.4297V17.7329H49.6768V20.852H44.9143V35.4273Z" fill="#D71F51"/>
<path d="M12.4431 38.0361C11.0401 38.0361 9.96163 38.5656 9.18856 39.6246C8.42504 40.6835 8.03374 42.1661 8.03374 44.0626C8.03374 48.0096 9.50351 49.9832 12.4335 49.9832C13.6647 49.9832 15.1536 49.6751 16.9097 49.0494V52.1974C15.4685 52.8039 13.8651 53.1023 12.0804 53.1023C9.53215 53.1023 7.57562 52.3225 6.22037 50.7629C4.86512 49.2034 4.1875 46.9603 4.1875 44.0337C4.1875 42.195 4.52154 40.5776 5.18008 39.201C5.84816 37.8147 6.80256 36.7557 8.04328 36.0145C9.284 35.2732 10.7442 34.9073 12.4144 34.9073C14.0846 34.9073 15.8312 35.3213 17.5491 36.1492L16.3466 39.201C15.688 38.8833 15.0295 38.6137 14.371 38.3731C13.7029 38.142 13.0539 38.0169 12.4144 38.0169L12.4431 38.0361Z" fill="#D71F51"/>
<path d="M26.8284 52.8712H23.1062V38.296H18.3438V35.1769H31.5908V38.296H26.8284V52.8712Z" fill="#D71F51"/>
<path d="M33.0252 35.1672H38.4843C40.9753 35.1672 42.7791 35.5234 43.9053 36.2358C45.0315 36.9482 45.5946 38.0842 45.5946 39.6438C45.5946 40.7027 45.3465 41.5692 44.8597 42.2431C44.3635 42.9169 43.7145 43.3309 42.8937 43.4657V43.5908C44.0103 43.8411 44.812 44.3128 45.2988 44.9964C45.7951 45.6799 46.0337 46.5944 46.0337 47.7304C46.0337 49.3477 45.4515 50.5993 44.2966 51.5042C43.1418 52.4091 41.5671 52.8616 39.5819 52.8616H33.0156V35.1672H33.0252ZM36.7473 42.1757H38.9043C39.9159 42.1757 40.6413 42.0216 41.0994 41.7039C41.548 41.3863 41.777 40.8664 41.777 40.1444C41.777 39.4705 41.5289 38.9795 41.0421 38.6811C40.5459 38.3826 39.7728 38.2382 38.7039 38.2382H36.7473V42.1757ZM36.7473 45.1504V49.7617H39.1715C40.1927 49.7617 40.9562 49.5692 41.443 49.1648C41.9297 48.7701 42.1779 48.1636 42.1779 47.3453C42.1779 45.8724 41.1376 45.1408 39.057 45.1408H36.7569L36.7473 45.1504Z" fill="#D71F51"/>
<path d="M20.2538 70.3153H10.1562V52.621H20.2634V55.692H13.8784V59.5813H19.8148V62.6523H13.8784V67.2154H20.2634V70.3153H20.2538Z" fill="#D71F51"/>
<path d="M36.9766 70.3153H33.2639V62.6811H26.3159V70.3153H22.5938V52.621H26.3159V59.5524H33.2639V52.621H36.9766V70.3153Z" fill="#D71F51"/>
<path d="M54.2774 70.3153H50.5647V62.6811H43.6167V70.3153H39.8945V52.621H43.6167V59.5524H50.5647V52.621H54.2774V70.3153Z" fill="#D71F51"/>
<path d="M20.9208 78.8929C20.9208 81.8195 20.205 84.0722 18.7638 85.651C17.3227 87.2202 15.2612 88.0096 12.5698 88.0096C9.87835 88.0096 7.81684 87.2202 6.3757 85.651C4.93455 84.0722 4.21875 81.8195 4.21875 78.8736C4.21875 75.9278 4.94409 73.6751 6.38524 72.1251C7.82638 70.5752 9.89743 69.7954 12.5984 69.7954C15.2993 69.7954 17.3608 70.5752 18.7829 72.1444C20.2145 73.7136 20.9208 75.9663 20.9208 78.9025V78.8929ZM8.1127 78.8929C8.1127 80.8664 8.48492 82.3586 9.22935 83.3598C9.97379 84.361 11.0809 84.8616 12.5698 84.8616C15.5379 84.8616 17.0268 82.8688 17.0268 78.8929C17.0268 74.9169 15.5475 72.9145 12.5984 72.9145C11.1191 72.9145 10.0024 73.4151 9.24844 74.4163C8.49446 75.4176 8.12225 76.9097 8.12225 78.8929H8.1127Z" fill="#D71F51"/>
<path d="M30.6462 72.9338C29.2432 72.9338 28.1647 73.4633 27.3917 74.5223C26.6282 75.5812 26.2369 77.0638 26.2369 78.9603C26.2369 82.9073 27.7066 84.8809 30.6366 84.8809C31.8678 84.8809 33.3567 84.5728 35.1128 83.9471V87.0951C33.6716 87.7016 32.0682 88 30.2835 88C27.7353 88 25.7787 87.2202 24.4235 85.6607C23.0683 84.1011 22.3906 81.858 22.3906 78.9314C22.3906 77.0927 22.7247 75.4753 23.3832 74.0987C24.0513 72.7124 25.0057 71.6534 26.2464 70.9122C27.4871 70.1709 28.9474 69.8051 30.6176 69.8051C32.2878 69.8051 34.0343 70.219 35.7522 71.0469L34.5497 74.0987C33.8912 73.781 33.2326 73.5114 32.5741 73.2708C31.9155 73.0301 31.257 72.9146 30.6176 72.9146L30.6462 72.9338Z" fill="#D71F51"/>
<path d="M45.0276 87.7593H41.3054V73.1841H36.543V70.0649H49.79V73.1841H45.0276V87.7593Z" fill="#D71F51"/>
<path d="M63.58 82.2334C63.58 85.9205 61.1653 87.7689 56.3265 87.7689H51.2109V70.0746H54.9331V76.8616H56.3933C58.6839 76.8616 60.4495 77.3333 61.6998 78.2671C62.9501 79.2009 63.5704 80.5295 63.5704 82.2334H63.58ZM54.9426 84.6883H56.1929C57.4527 84.6883 58.3689 84.4861 58.9511 84.0722C59.5333 83.6678 59.8292 83.0517 59.8292 82.2238C59.8292 81.3959 59.5333 80.8183 58.9416 80.4621C58.3499 80.1059 57.3286 79.923 55.897 79.923H54.9522V84.6787L54.9426 84.6883Z" fill="#D71F51"/>
<path d="M75.897 76.4284C85.5008 76.4284 93.2862 68.5753 93.2862 58.8881C93.2862 49.2008 85.5008 41.3478 75.897 41.3478C66.2932 41.3478 58.5078 49.2008 58.5078 58.8881C58.5078 68.5753 66.2932 76.4284 75.897 76.4284Z" fill="#D71F51"/>
</svg>
