<svg width="56" height="56" viewBox="0 0 56 56" fill="none" xmlns="http://www.w3.org/2000/svg">
<path d="M28 1.6461L31.8629 6.69699C32.1625 7.08867 32.7028 7.20353 33.1358 6.96755L38.7191 3.92452L40.1936 10.1099C40.308 10.5896 40.7549 10.9143 41.2464 10.8748L47.5848 10.3658L46.416 16.6162C46.3254 17.1009 46.6016 17.5793 47.0667 17.7432L53.064 19.8562L49.4541 25.0908C49.1741 25.4968 49.2319 26.0462 49.5901 26.385L54.2095 30.7547L48.7825 34.0685C48.3617 34.3255 48.191 34.8509 48.3804 35.3061L50.8231 41.1769L44.5175 41.9969C44.0285 42.0605 43.6589 42.471 43.6467 42.9639L43.4904 49.3207L37.3964 47.5051C36.9239 47.3643 36.4192 47.5889 36.2076 48.0343L33.4793 53.778L28.6507 49.6406C28.2762 49.3198 27.7238 49.3198 27.3493 49.6406L22.5207 53.778L19.7924 48.0343C19.5808 47.5889 19.0761 47.3643 18.6036 47.5051L12.5096 49.3207L12.3533 42.9639C12.3411 42.471 11.9715 42.0605 11.4825 41.9969L5.17686 41.1769L7.6196 35.3061C7.80903 34.8509 7.63832 34.3255 7.21747 34.0685L1.79047 30.7547L6.40991 26.385C6.76813 26.0462 6.82587 25.4968 6.54593 25.0908L2.93595 19.8562L8.93333 17.7432C9.39841 17.5793 9.67463 17.1009 9.58399 16.6162L8.41524 10.3658L14.7536 10.8748C15.2451 10.9143 15.692 10.5896 15.8064 10.1099L17.2809 3.92452L22.8642 6.96755C23.2972 7.20353 23.8375 7.08867 24.1371 6.69699L28 1.6461Z" stroke="url(#paint0_linear_5318_25123)" stroke-width="2" stroke-linejoin="round"/>
<path d="M21.2695 25C21.2695 26.1641 21.3828 27.0312 21.6094 27.6016C21.8359 28.1719 22.207 28.457 22.7227 28.457C23.7539 28.457 24.2695 27.3047 24.2695 25C24.2695 22.6953 23.7539 21.543 22.7227 21.543C22.207 21.543 21.8359 21.8281 21.6094 22.3984C21.3828 22.9688 21.2695 23.8359 21.2695 25ZM26.543 24.9766C26.543 26.7734 26.2188 28.125 25.5703 29.0312C24.9297 29.9297 23.9805 30.3789 22.7227 30.3789C21.5352 30.3789 20.6133 29.9141 19.957 28.9844C19.3086 28.0469 18.9844 26.7109 18.9844 24.9766C18.9844 21.4062 20.2305 19.6211 22.7227 19.6211C23.9492 19.6211 24.8906 20.0859 25.5469 21.0156C26.2109 21.9375 26.543 23.2578 26.543 24.9766ZM32.4258 31.8438C32.4258 33.0078 32.5391 33.8789 32.7656 34.457C33 35.0352 33.375 35.3242 33.8906 35.3242C34.9141 35.3242 35.4258 34.1641 35.4258 31.8438C35.4258 29.5547 34.9141 28.4102 33.8906 28.4102C33.375 28.4102 33 28.6914 32.7656 29.2539C32.5391 29.8164 32.4258 30.6797 32.4258 31.8438ZM37.6992 31.8438C37.6992 33.6406 37.375 34.9883 36.7266 35.8867C36.0781 36.7852 35.1328 37.2344 33.8906 37.2344C32.7031 37.2344 31.7812 36.7734 31.125 35.8516C30.4688 34.9219 30.1406 33.5859 30.1406 31.8438C30.1406 28.2734 31.3906 26.4883 33.8906 26.4883C35.0938 26.4883 36.0273 26.9492 36.6914 27.8711C37.3633 28.793 37.6992 30.1172 37.6992 31.8438ZM34.2188 19.8672L24.7148 37H22.4414L31.9453 19.8672H34.2188Z" fill="url(#paint1_linear_5318_25123)"/>
<defs>
<linearGradient id="paint0_linear_5318_25123" x1="28" y1="0" x2="28" y2="56" gradientUnits="userSpaceOnUse">
<stop stop-color="#25A9C9"/>
<stop offset="1" stop-color="#00587C"/>
</linearGradient>
<linearGradient id="paint1_linear_5318_25123" x1="28" y1="16" x2="28" y2="36" gradientUnits="userSpaceOnUse">
<stop stop-color="#25A9C9"/>
<stop offset="1" stop-color="#00587C"/>
</linearGradient>
</defs>
</svg>
