<svg width="53" height="57" viewBox="0 0 53 57" fill="none" xmlns="http://www.w3.org/2000/svg">
<path fill-rule="evenodd" clip-rule="evenodd" d="M51.3321 0.318344C51.7344 0.696664 51.7539 1.32953 51.3756 1.73189L44.9111 8.60716L45.4652 9.127L45.4675 9.12911C48.0014 11.5209 48.1318 15.5062 45.7387 18.0545L45.7383 18.0549L22.6369 42.6266L24.3535 44.2408C24.5478 44.4236 24.6611 44.6765 24.6681 44.9433C24.675 45.21 24.575 45.4685 24.3904 45.6612L21.1898 49.0013C20.8102 49.3975 20.1824 49.4138 19.7827 49.038L13.0684 42.724L6.53765 49.7231L9.58311 52.5869C9.98544 52.9653 10.0049 53.5981 9.62655 54.0005C9.24821 54.4028 8.61534 54.4223 8.21301 54.0439L0.362484 46.6616L0.361829 46.661C-0.040381 46.2828 -0.0599678 45.6502 0.318073 45.2478C0.696114 44.8454 1.32872 44.8255 1.73127 45.2034L1.73193 45.204L5.08347 48.35L11.6115 41.3539L4.90088 35.0434C4.70649 34.8606 4.59322 34.6077 4.58628 34.341C4.57934 34.0742 4.67929 33.8157 4.86391 33.6231L8.06455 30.2829C8.44412 29.8868 9.07196 29.8705 9.47163 30.2463L10.9832 31.6677L27.7118 13.8744L27.7158 13.8698C27.7335 13.8495 27.7518 13.8302 27.7707 13.8117L34.0888 7.09151L34.0901 7.09008C36.4806 4.55751 40.4665 4.42414 43.0055 6.81969L43.0065 6.82059L43.4524 7.23885L49.9185 0.361869C50.2968 -0.0404897 50.9297 -0.0599766 51.3321 0.318344ZM28.5375 15.916L12.4483 33.0291L21.1843 41.2518L37.5768 23.816L28.5375 15.916ZM38.9476 22.358L29.9083 14.4579L35.5446 8.46289L35.5455 8.46196C37.1839 6.72714 39.9044 6.64276 41.6337 8.27503L41.6359 8.27714L42.5451 9.13002C42.5971 9.23997 42.6702 9.34222 42.7642 9.43058C42.8588 9.51951 42.9661 9.58646 43.0799 9.63162L44.0947 10.5836L44.0956 10.5844C45.8293 12.2218 45.9164 14.9436 44.2808 16.6854L38.9476 22.358ZM13.7935 40.6605L20.4311 46.9023L22.248 45.0063L8.8232 32.3819L7.00636 34.278L13.621 40.4982C13.6514 40.5207 13.6808 40.5452 13.7091 40.5716C13.7394 40.5998 13.7675 40.6295 13.7935 40.6605ZM52.1968 37.4872C52.5139 36.8657 52.6836 36.0988 52.6836 35.3046V31.5369C52.6836 30.9846 52.2359 30.5369 51.6836 30.5369H43.2227C42.6704 30.5369 42.2227 30.9846 42.2227 31.5369V35.3046C42.2227 36.0938 42.388 36.8582 42.7019 37.4796C42.4058 37.6532 42.207 37.9748 42.207 38.3428V51.8782C42.207 54.1859 44.0835 56.047 46.3758 56.047H48.5101L48.5163 56.0469C50.8135 56.0327 52.6789 54.1761 52.6789 51.8782V38.3428C52.6789 37.9801 52.4858 37.6625 52.1968 37.4872ZM44.207 39.3428V51.8782C44.207 53.0768 45.1836 54.047 46.3758 54.047H48.5067C49.7146 54.038 50.6789 53.0639 50.6789 51.8782V39.3428H44.207ZM44.2227 35.3046V32.5369H50.6836V35.3046C50.6836 35.8751 50.5487 36.3468 50.3813 36.6414C50.2809 36.8181 50.2058 36.8782 50.1765 36.8962H44.7255C44.6965 36.879 44.6219 36.82 44.522 36.6433C44.3562 36.3499 44.2227 35.8781 44.2227 35.3046ZM50.1629 36.903C50.1629 36.9029 50.1642 36.9023 50.1669 36.9015C50.1643 36.9027 50.1629 36.9031 50.1629 36.903ZM44.7388 36.9025C44.7387 36.9026 44.737 36.9022 44.7337 36.9006C44.7371 36.9016 44.7388 36.9023 44.7388 36.9025Z" fill="url(#paint0_linear_5318_25144)"/>
<defs>
<linearGradient id="paint0_linear_5318_25144" x1="26.3653" y1="0.046875" x2="26.3653" y2="56.0469" gradientUnits="userSpaceOnUse">
<stop stop-color="#25A9C9"/>
<stop offset="1" stop-color="#00587C"/>
</linearGradient>
</defs>
</svg>
