<svg width="237" height="46" viewBox="0 0 237 46" fill="none" xmlns="http://www.w3.org/2000/svg">
<g clip-path="url(#clip0_7013_24978)">
<path d="M23.4247 12.6166C21.7935 13.2893 20.2337 13.9896 18.7344 14.723C18.63 15.7156 18.5202 16.7027 18.4048 17.6952L18.2675 18.9194C18.2456 19.1179 18.2181 19.3164 18.1906 19.5094C17.1197 28.3378 15.6588 37.1716 13.9727 45.9889H17.3339C19.3989 36.0467 21.2827 26.325 22.87 16.4766C22.9029 16.2781 22.9359 16.074 22.9688 15.8755L23.1556 14.6679C23.2654 13.9731 23.3698 13.2783 23.4796 12.5835C23.4576 12.5945 23.4412 12.6 23.4192 12.6111" fill="#00577C"/>
<path d="M25.4061 33.3834L25.3897 33.422L24.9063 34.6462L24.8954 34.6793L24.769 35.0046C24.6647 35.2693 24.5548 35.556 24.4395 35.8593C24.3736 36.0358 24.3022 36.2232 24.2308 36.4107C22.7699 40.2597 20.6719 46 20.6719 46H23.2642C24.2912 45.989 24.2693 45.2666 24.6647 44.3899C25.9444 41.1089 27.3064 37.8444 28.7179 34.5855C28.8003 34.3925 28.8772 34.1995 28.9651 34.012C29.0859 33.7363 29.1957 33.4661 29.3166 33.1904L29.4923 32.7989L29.5033 32.7713L30.6072 30.3175L30.6182 30.2954C28.7069 31.4699 26.9165 32.5177 25.4116 33.3944" fill="#00577C"/>
<path d="M28.6361 0.794054C22.2542 0.970511 19.7882 2.70199 19.3158 8.56917C19.195 10.0856 19.0522 11.602 18.8984 13.124C20.1891 12.5064 21.5182 11.9108 22.9022 11.3428C23.1878 11.227 23.4624 11.1112 23.7261 11.001C23.8414 10.2455 23.9512 9.49557 24.0611 8.74011C25.0497 1.80316 33.4637 3.47399 38.4396 3.47399C33.9854 12.6718 29.9542 21.9523 26.236 31.299C27.8287 30.3615 29.707 29.2311 31.6732 27.9849C34.672 21.4725 37.8904 14.9988 41.29 8.54711C41.3614 8.40926 41.4328 8.26588 41.5097 8.12803C41.658 7.8468 41.8063 7.57109 41.9546 7.28986C42.026 7.15752 42.0974 7.02517 42.1688 6.88732C42.3445 6.55646 42.5203 6.22009 42.7015 5.88924C42.7894 5.72381 42.8828 5.55838 42.9707 5.39847C43.9373 3.5953 44.9094 1.79765 45.898 0C41.1912 2.46488 33.9031 0.650683 28.6361 0.794054Z" fill="#00577C"/>
<path d="M23.4268 12.6167C57.7969 -1.55501 -19.6483 31.1722 12.3985 38.0926C8.54302 38.7874 1.19448 39.5152 0.0960468 33.7142C-0.508093 30.4443 1.73821 26.6505 6.82397 22.3383C11.2671 18.5721 16.7978 15.3407 23.4213 12.6167" fill="#00577C"/>
<path d="M30.0177 32.5508C-4.35789 46.7225 73.0873 14.0008 41.0405 7.07489C44.896 6.3801 52.2445 5.6467 53.3429 11.4532C53.9471 14.7232 51.7008 18.517 46.615 22.8292C42.1718 26.5954 36.6412 29.8268 30.0177 32.5508Z" fill="#00577C"/>
<path d="M85.246 11.4807L80.3031 38.3352H76.6343L80.9786 14.6183H69.099L64.7547 38.3352H61.0859L65.9905 11.4807H85.246Z" fill="#00577C"/>
<path d="M88.2144 27.7588C89.6753 27.7091 91.0044 27.6099 92.2072 27.4665C93.41 27.3231 94.4425 27.0805 95.3103 26.7276C96.1781 26.3802 96.8371 25.906 97.2985 25.3159C97.7598 24.7204 97.9685 23.9484 97.9191 22.9889C97.9081 22.7573 97.8532 22.5092 97.7488 22.25C97.6445 21.9908 97.4852 21.7537 97.26 21.5332C97.0349 21.3126 96.7273 21.1306 96.3428 20.9928C95.9584 20.8494 95.4861 20.7777 94.9314 20.7777C94.0471 20.7777 93.2343 20.9707 92.4818 21.3567C91.7349 21.7427 91.0704 22.2555 90.4992 22.8897C89.928 23.5238 89.4447 24.2627 89.0602 25.1009C88.6758 25.9391 88.3902 26.8269 88.2144 27.7588ZM92.3775 38.8424C91.0923 38.8424 89.9719 38.655 89.0218 38.28C88.0716 37.905 87.2588 37.3867 86.5997 36.7305C85.9352 36.0743 85.4299 35.3023 85.0839 34.4255C84.7379 33.5487 84.5402 32.6168 84.4852 31.6353C84.3919 29.8266 84.5676 28.0841 85.0125 26.4023C85.4573 24.7204 86.1384 23.2371 87.0556 21.9467C87.9728 20.6564 89.1206 19.6252 90.4937 18.8643C91.8667 18.1033 93.4485 17.7173 95.2389 17.7173C96.2715 17.7173 97.1667 17.8551 97.9246 18.1253C98.6825 18.3955 99.3086 18.765 99.7974 19.2337C100.286 19.6969 100.66 20.2373 100.918 20.8439C101.176 21.4504 101.319 22.0791 101.352 22.7242C101.412 23.9374 101.253 24.9685 100.868 25.8067C100.484 26.6449 99.9512 27.3507 99.2757 27.9187C98.6001 28.4866 97.7983 28.9278 96.8646 29.2366C95.9364 29.5454 94.9643 29.7935 93.9538 29.9755C92.9432 30.1575 91.9162 30.2788 90.8726 30.345C89.8291 30.4111 88.8405 30.4663 87.9124 30.5214C87.8959 30.731 87.8959 30.8964 87.9014 31.0232C87.9069 31.15 87.9124 31.2548 87.9178 31.332C87.9453 31.9275 88.0442 32.49 88.2144 33.0194C88.3792 33.5487 88.6648 34.0119 89.0602 34.4145C89.4611 34.817 89.9994 35.1313 90.6804 35.3629C91.3614 35.5945 92.2457 35.7103 93.3276 35.7103C93.8055 35.7103 94.2998 35.6662 94.816 35.5725C95.3268 35.4843 95.8156 35.3629 96.2714 35.2251C96.7273 35.0817 97.1392 34.9439 97.4962 34.8005C97.8532 34.6571 98.0949 34.5082 98.2486 34.3924C98.5782 34.1498 98.8033 33.9623 98.8033 33.9623L98.1003 37.7506C98.1003 37.7506 97.0458 38.1532 96.3154 38.3627C95.2115 38.6825 93.8988 38.8479 92.3885 38.8479" fill="#00577C"/>
<path d="M133.84 35.5063C134.092 35.556 134.367 35.589 134.658 35.6056C134.949 35.6166 135.235 35.6276 135.509 35.6276C136.948 35.6276 138.217 35.3409 139.326 34.7729C140.43 34.205 141.358 33.4385 142.1 32.468C142.847 31.4975 143.401 30.3891 143.764 29.1374C144.126 27.8856 144.275 26.5732 144.203 25.2057C144.176 24.6377 144.083 24.0808 143.929 23.5404C143.775 23 143.517 22.5202 143.154 22.1067C142.792 21.6931 142.314 21.3622 141.721 21.1196C141.128 20.877 140.375 20.7502 139.469 20.7502C138.837 20.7502 138.261 20.8108 137.739 20.9266C137.217 21.0424 136.778 21.1527 136.432 21.2575L133.834 35.5174L133.84 35.5063ZM140.189 17.6787C141.424 17.6787 142.501 17.8607 143.412 18.2191C144.324 18.5831 145.088 19.0793 145.703 19.7135C146.318 20.3476 146.79 21.0976 147.125 21.9633C147.46 22.829 147.652 23.7775 147.707 24.8142C147.801 26.5953 147.619 28.3212 147.18 29.9866C146.735 31.6519 145.999 33.1297 144.967 34.4255C143.934 35.7159 142.6 36.7526 140.963 37.5246C139.326 38.2966 137.36 38.6881 135.064 38.6881C134.784 38.6881 134.482 38.677 134.153 38.6495C133.823 38.6219 133.532 38.5833 133.279 38.5337L131.923 46.0055H128.402L133.34 19.0407C134.378 18.5996 135.515 18.2632 136.75 18.0316C137.986 17.8 139.134 17.6842 140.194 17.6842" fill="#00577C"/>
<path d="M156.468 35.7765C157.605 35.7765 158.599 35.4402 159.462 34.7674C160.324 34.0947 161.038 33.2345 161.598 32.1923C162.164 31.1445 162.576 29.9921 162.839 28.7238C163.103 27.461 163.202 26.2313 163.141 25.0403C163.075 23.7223 162.74 22.6746 162.147 21.9026C161.554 21.1251 160.576 20.7391 159.214 20.7391C158.078 20.7391 157.083 21.0755 156.221 21.7482C155.359 22.421 154.65 23.2812 154.085 24.3289C153.519 25.3766 153.107 26.5291 152.844 27.7974C152.58 29.0657 152.481 30.2898 152.541 31.4809C152.607 32.7988 152.937 33.8465 153.536 34.6185C154.129 35.3905 155.106 35.782 156.468 35.782V35.7765ZM156.018 38.8425C153.947 38.8425 152.3 38.2138 151.059 36.9621C149.823 35.7104 149.147 33.9844 149.037 31.7897C148.961 30.2898 149.087 28.7128 149.422 27.0585C149.751 25.4042 150.339 23.8823 151.174 22.4871C152.009 21.092 153.124 19.9451 154.513 19.0352C155.903 18.1309 157.622 17.6787 159.665 17.6787C161.708 17.6787 163.383 18.3073 164.624 19.5591C165.86 20.8108 166.536 22.5368 166.645 24.7315C166.722 26.2313 166.596 27.8084 166.261 29.4627C165.931 31.117 165.344 32.6389 164.509 34.034C163.674 35.4291 162.559 36.5761 161.17 37.486C159.78 38.3903 158.061 38.8425 156.018 38.8425Z" fill="#00577C"/>
<path d="M172.516 26.4795H175.427C176.234 26.4795 176.981 26.4188 177.667 26.303C178.354 26.1872 178.942 25.9942 179.436 25.724C179.925 25.4538 180.304 25.0844 180.573 24.6212C180.836 24.158 180.952 23.5624 180.913 22.8401C180.88 22.1673 180.617 21.6214 180.128 21.1913C179.639 20.7667 178.903 20.5516 177.92 20.5516C177.316 20.5516 176.723 20.6233 176.152 20.7667C175.58 20.9101 175.048 21.1803 174.564 21.5828C174.081 21.9854 173.664 22.5478 173.307 23.2702C172.955 23.9925 172.702 24.9355 172.56 26.099L172.505 26.485L172.516 26.4795ZM172.005 29.1153L170.863 35.6662C171.22 35.7214 171.708 35.771 172.329 35.8206C172.95 35.8703 173.702 35.8978 174.581 35.8978C175.388 35.8978 176.157 35.8317 176.898 35.7048C177.634 35.5725 178.283 35.363 178.832 35.0652C179.386 34.7674 179.815 34.3594 180.128 33.8465C180.441 33.3282 180.578 32.683 180.54 31.911C180.49 30.9295 180.122 30.2182 179.447 29.777C178.766 29.3359 177.733 29.1208 176.349 29.1208H171.999L172.005 29.1153ZM184.302 22.5643C184.351 24.0091 184.066 25.134 183.451 25.9391C182.836 26.7387 181.995 27.3618 180.935 27.7974C181.809 28.0841 182.517 28.5694 183.072 29.2532C183.626 29.9369 183.923 30.731 183.967 31.6353C184.044 33.0801 183.819 34.2656 183.297 35.181C182.775 36.0964 182.067 36.8242 181.177 37.3481C180.282 37.8775 179.244 38.2469 178.057 38.451C176.871 38.655 175.657 38.7598 174.422 38.7598C173.109 38.7598 171.78 38.6826 170.44 38.5282C169.094 38.3738 167.946 38.1146 166.996 37.7506L169.231 25.2719C169.506 23.772 169.923 22.5368 170.478 21.5497C171.033 20.5682 171.703 19.7962 172.494 19.2282C173.285 18.6602 174.158 18.2577 175.119 18.0261C176.08 17.7945 177.113 17.6787 178.222 17.6787C179.205 17.6787 180.067 17.8055 180.814 18.0647C181.556 18.3239 182.182 18.6713 182.682 19.1124C183.182 19.5536 183.566 20.0664 183.841 20.6619C184.11 21.2575 184.264 21.8916 184.296 22.5588" fill="#00577C"/>
<path d="M207.052 38.3351H203.531L207.227 18.1804H210.748L209.243 26.4353C210.144 25.7901 211.045 25.0843 211.951 24.3233C212.857 23.5623 213.714 22.8069 214.521 22.0569C215.328 21.307 216.07 20.5957 216.74 19.9229C217.41 19.2502 217.965 18.6712 218.393 18.1804H222.628C222.078 18.8256 221.397 19.5645 220.584 20.3916C219.772 21.2188 218.898 22.068 217.97 22.9282C217.042 23.7939 216.114 24.6266 215.186 25.4262C214.257 26.2257 213.412 26.9095 212.665 27.4775C213.401 28.0951 214.164 28.845 214.955 29.7273C215.746 30.6096 216.504 31.536 217.234 32.5175C217.965 33.4991 218.64 34.4971 219.261 35.5007C219.881 36.5098 220.403 37.4528 220.826 38.3295H216.965C215.905 36.3168 214.686 34.431 213.307 32.6719C211.929 30.9184 210.457 29.4792 208.886 28.3708L207.052 38.3295V38.3351Z" fill="#00577C"/>
<path d="M221.069 31.128C220.981 29.369 221.152 27.6761 221.586 26.0494C222.019 24.4227 222.706 22.9889 223.656 21.7482C224.601 20.5075 225.787 19.5205 227.21 18.7816C228.638 18.0482 230.291 17.6787 232.185 17.6787C233.015 17.6787 233.817 17.7339 234.575 17.8552C235.31 17.9655 236.013 18.1805 236.689 18.5003L236.074 21.831C235.948 21.7593 235.591 21.5608 235.591 21.5608C235.173 21.3292 234.69 21.1472 234.146 21.0204C233.597 20.8935 232.894 20.8274 232.037 20.8274C230.801 20.8274 229.703 21.1031 228.753 21.66C227.797 22.217 226.995 22.9503 226.347 23.8712C225.699 24.7866 225.227 25.8453 224.919 27.0474C224.617 28.2496 224.496 29.4958 224.562 30.7861C224.595 31.4589 224.7 32.093 224.87 32.683C225.04 33.2786 225.309 33.8024 225.688 34.2546C226.062 34.7068 226.556 35.0597 227.16 35.3188C227.764 35.578 228.522 35.7048 229.428 35.7048C229.884 35.7048 230.357 35.6607 230.862 35.567C231.362 35.4788 231.823 35.3685 232.246 35.2361C232.63 35.1203 232.954 35.0211 233.377 34.8281C233.641 34.7068 234.08 34.5027 234.575 34.1333C234.575 34.1333 234.717 34.023 235.514 33.3172L234.783 37.3095C234.783 37.3095 234.613 37.4363 234.558 37.4749C234.102 37.7948 233.366 38.087 232.372 38.3848C231.378 38.6825 230.241 38.8314 228.951 38.8314C227.742 38.8314 226.66 38.6439 225.705 38.269C224.755 37.894 223.942 37.3646 223.277 36.6809C222.613 35.9971 222.091 35.181 221.712 34.2381C221.338 33.2951 221.119 32.2529 221.064 31.117" fill="#00577C"/>
<path d="M197.58 30.6263C197.503 31.117 197.448 31.6023 197.41 32.082C197.371 32.5618 197.349 33.0194 197.349 33.4551C196.828 34.0727 196.196 34.6186 195.466 35.0818C194.735 35.545 193.84 35.7821 192.78 35.7821C192.071 35.7821 191.495 35.6442 191.039 35.374C190.583 35.1038 190.215 34.7564 189.924 34.3263C189.638 33.9017 189.43 33.411 189.298 32.854C189.166 32.2971 189.089 31.7512 189.062 31.2053C188.99 29.8377 189.144 28.5253 189.523 27.2736C189.902 26.0218 190.473 24.9245 191.248 23.9816C192.022 23.0386 192.972 22.2832 194.104 21.7152C195.235 21.1472 196.52 20.8605 197.954 20.8605C198.179 20.8605 198.442 20.8715 198.734 20.8991C199.025 20.9267 199.233 20.9653 199.365 21.0149L197.586 30.6263H197.58ZM198.442 38.3352H201.721C201.436 37.6404 201.128 36.7526 201.002 36.146C200.87 35.5395 200.788 34.9384 200.76 34.3429C200.727 33.7473 200.744 33.1794 200.804 32.639C200.864 32.0986 200.941 31.5306 201.04 30.9351L203.33 18.7651C202.655 18.4011 201.859 18.1475 200.947 17.9931C200.03 17.8387 199.233 17.7615 198.552 17.7615C196.257 17.7615 194.274 18.164 192.599 18.9636C190.924 19.7632 189.556 20.8109 188.485 22.1012C187.414 23.3915 186.64 24.8638 186.156 26.5181C185.673 28.1724 185.475 29.8653 185.563 31.5968C185.618 32.6555 185.788 33.626 186.074 34.5028C186.36 35.3796 186.772 36.146 187.304 36.7912C187.843 37.4364 188.518 37.9382 189.331 38.3021C190.144 38.6661 191.105 38.8425 192.214 38.8425C193.576 38.8425 194.708 38.5833 195.619 38.065C196.526 37.5467 197.245 37.0338 197.772 36.5155C197.871 36.9015 197.987 37.2709 198.135 37.6183C198.239 37.8775 198.349 38.1146 198.453 38.3352" fill="#00577C"/>
<path d="M122.704 17.7559C123.813 17.7559 124.763 17.9323 125.549 18.2797C126.334 18.6271 126.977 19.1013 127.476 19.6969C127.971 20.2924 128.344 20.9817 128.586 21.7702C128.827 22.5588 128.97 23.3914 129.014 24.2737C129.042 24.8417 129.031 25.4538 128.976 26.1155C128.921 26.7717 128.833 27.4113 128.718 28.0345L126.823 38.3461H123.302L125.049 28.812C125.142 28.2164 125.257 27.5492 125.378 26.8158C125.505 26.0824 125.549 25.349 125.51 24.6266C125.483 24.1359 125.406 23.6561 125.268 23.1929C125.131 22.7242 124.922 22.3272 124.637 21.9908C124.357 21.6544 123.967 21.3842 123.478 21.1747C122.989 20.9652 122.391 20.8659 121.682 20.8659C120.875 20.8659 120.1 21.0258 119.364 21.3512C118.623 21.6765 118.008 22.0018 117.524 22.3382C117.59 22.7022 117.656 23.0551 117.711 23.4025C117.766 23.7499 117.805 24.0973 117.821 24.4281C117.854 25.0237 117.838 25.6247 117.783 26.2313C117.728 26.8379 117.651 27.4389 117.552 28.0345L115.657 38.3461H112.137L113.883 28.812C113.977 28.2164 114.081 27.5437 114.196 26.7993C114.312 26.0493 114.345 25.2994 114.306 24.5494C114.279 24.0587 114.207 23.59 114.081 23.1323C113.955 22.6801 113.768 22.2886 113.51 21.9522C113.252 21.6158 112.917 21.3512 112.505 21.1582C112.093 20.9652 111.565 20.8659 110.939 20.8659C110.313 20.8659 109.698 20.9045 109.11 20.9817C108.523 21.0589 108.029 21.1637 107.633 21.2905L104.497 38.3406H100.977L104.525 18.9635C105.639 18.5995 106.87 18.3128 108.204 18.0922C109.539 17.8717 110.742 17.7614 111.802 17.7614C112.862 17.7614 113.768 17.9489 114.515 18.3238C115.267 18.6988 115.871 19.1951 116.333 19.8182C116.574 19.6362 116.915 19.4322 117.343 19.2006C117.772 18.969 118.266 18.7484 118.821 18.5389C119.375 18.3293 119.985 18.1529 120.644 17.9985C121.303 17.8441 121.99 17.7669 122.693 17.7669" fill="#00577C"/>
</g>
<defs>
<clipPath id="clip0_7013_24978">
<rect width="236.691" height="46" fill="white"/>
</clipPath>
</defs>
</svg>
